<?xml version="1.0" encoding="utf-8"?>
<!-- Generator: Adobe Illustrator 16.0.4, SVG Export Plug-In . SVG Version: 6.00 Build 0)  -->
<!DOCTYPE svg PUBLIC "-//W3C//DTD SVG 1.1//EN" "http://www.w3.org/Graphics/SVG/1.1/DTD/svg11.dtd">
<svg version="1.1" id="Layer_1" xmlns="http://www.w3.org/2000/svg" xmlns:xlink="http://www.w3.org/1999/xlink" x="0px" y="0px"
	 width="698.066px" height="1400px" viewBox="150.967 0 698.066 1400" enable-background="new 150.967 0 698.066 1400"
	 xml:space="preserve">
<path fill="#EEE3C1" d="M845.166,359.636v926.334c0,39.65-4.129,54.028-11.881,68.524c-7.752,14.495-19.129,25.872-33.624,33.624
	c-14.496,7.752-28.874,11.881-68.524,11.881h-460.34c-39.65,0-54.028-4.129-68.524-11.881s-25.872-19.129-33.624-33.624
	c-7.752-14.496-11.881-28.874-11.881-68.524V471.823h-0.843c-1.724,0-2.349-0.18-2.979-0.517s-1.125-0.832-1.462-1.462
	s-0.517-1.255-0.517-2.979v-80.968c0-1.724,0.18-2.349,0.517-2.979c0.337-0.63,0.832-1.125,1.462-1.462
	c0.63-0.337,1.255-0.517,2.979-0.517h0.843v-21.271h-0.843c-1.724,0-2.349-0.179-2.979-0.517c-0.63-0.337-1.125-0.832-1.462-1.462
	s-0.517-1.255-0.517-2.979v-80.969c0-1.724,0.18-2.349,0.517-2.979c0.337-0.63,0.832-1.125,1.462-1.462
	c0.63-0.337,1.255-0.517,2.979-0.517h0.843v-52.21h-0.843c-1.724,0-2.349-0.18-2.979-0.517c-0.63-0.337-1.125-0.832-1.462-1.462
	s-0.517-1.255-0.517-2.979v-40.361c0-1.724,0.18-2.349,0.517-2.979s0.832-1.125,1.462-1.462s1.255-0.517,2.979-0.517h0.843v-52.269
	c0-39.65,4.128-54.029,11.881-68.524c7.752-14.496,19.128-25.872,33.624-33.624C216.769,4.128,231.146,0,270.797,0h460.34
	c39.65,0,54.028,4.128,68.524,11.881c14.495,7.752,25.872,19.128,33.624,33.624s11.881,28.874,11.881,68.524v154.788
	c0.941,0.065,1.414,0.23,1.889,0.484c0.63,0.337,1.125,0.832,1.462,1.462c0.337,0.63,0.517,1.255,0.517,2.979v80.969
	c0,1.724-0.18,2.349-0.517,2.979s-0.832,1.125-1.462,1.462C846.58,359.406,846.107,359.57,845.166,359.636z M500.967,1361.326
	c25.198,0,46.409-21.211,46.409-46.409c0-27.132-21.211-48.343-46.409-48.343c-27.132,0-48.343,21.211-48.343,48.343
	C452.624,1340.115,473.835,1361.326,500.967,1361.326z M500.967,1357.459c-24.996,0-44.475-19.479-44.475-42.542
	c0-24.995,19.479-44.475,44.475-44.475c23.062,0,42.541,19.479,42.541,44.475C543.508,1337.979,524.029,1357.459,500.967,1357.459z
	 M382.044,94.751c5.874,0,10.636-4.762,10.636-10.635c0-5.874-4.762-10.636-10.636-10.636c-5.873,0-10.635,4.762-10.635,10.636
	C371.409,89.99,376.171,94.751,382.044,94.751z M500.967,52.21c3.204,0,5.801-2.597,5.801-5.801c0-3.204-2.597-5.801-5.801-5.801
	s-5.801,2.597-5.801,5.801C495.166,49.613,497.763,52.21,500.967,52.21z M443.923,79.282c-2.67,0-4.835,2.165-4.835,4.834
	s2.165,4.834,4.835,4.834h114.088c2.67,0,4.835-2.164,4.835-4.834s-2.165-4.834-4.835-4.834H443.923z"/>
<path fill="#0A0A0A" d="M197.375,156.63h605.249c2.136,0,3.868,1.731,3.868,3.867v1077.072c0,2.136-1.732,3.867-3.868,3.867H197.375
	c-2.136,0-3.867-1.731-3.867-3.867V160.497C193.508,158.361,195.24,156.63,197.375,156.63z"/>
<path opacity="0.25" fill="#EEE3C1" enable-background="new    " d="M251.621,273.581l-7.308,28.076h-13.597l-12.645-49.049h14.888
	l5.643,31h0.272l7.308-31h11.149l7.308,31h0.272l5.643-31h14.888l-12.645,49.049h-13.597l-7.308-28.076H251.621z M289.589,301.657
	v-49.049h13.597v18.899h0.271c1.87-5.269,5.982-8.124,11.693-8.124c8.43,0,12.984,5.234,12.984,14.242v24.031h-13.937v-20.938
	c0-3.773-1.835-6.084-5.336-6.084c-3.468,0-5.337,2.549-5.337,6.05v20.972H289.589z M349.685,292.888
	c3.094,0,5.948-1.733,5.948-4.487v-2.447l-5.914,0.408c-2.651,0.204-4.146,1.462-4.146,3.297
	C345.572,291.698,347.237,292.888,349.685,292.888z M344.484,302.201c-6.832,0-12.645-4.69-12.645-11.455
	c0-7.206,5.54-11.115,15.567-11.727l8.226-0.51v-1.835c0-2.516-1.903-3.875-4.521-3.875c-2.854,0-4.69,1.563-4.895,3.467h-12.44
	c0.34-8.021,7.138-13.086,18.083-13.086c10.401,0,17.369,5.201,17.369,12.814v25.663h-13.597v-5.03h-0.271
	C353.39,300.298,348.835,302.201,344.484,302.201z M377.829,255.906h13.937v8.226h6.594v10.095h-6.594v13.869
	c0,2.345,1.359,3.569,4.215,3.569c1.054,0,1.563-0.034,2.379-0.17v9.653c-1.325,0.272-3.093,0.51-5.744,0.51
	c-10.605,0-14.786-3.059-14.786-10.469v-16.962h-4.962v-10.095h4.962V255.906z M432.656,292.888c3.094,0,5.949-1.733,5.949-4.487
	v-2.447l-5.915,0.408c-2.651,0.204-4.146,1.462-4.146,3.297C428.544,291.698,430.209,292.888,432.656,292.888z M427.456,302.201
	c-6.832,0-12.645-4.69-12.645-11.455c0-7.206,5.54-11.115,15.567-11.727l8.227-0.51v-1.835c0-2.516-1.904-3.875-4.521-3.875
	c-2.855,0-4.69,1.563-4.895,3.467h-12.44c0.34-8.021,7.138-13.086,18.083-13.086c10.401,0,17.369,5.201,17.369,12.814v25.663
	h-13.596v-5.03h-0.272C436.361,300.298,431.807,302.201,427.456,302.201z M457.436,301.657v-37.525h13.597v7.376h0.272
	c1.427-5.337,4.316-7.92,8.77-7.92c1.257,0,2.345,0.204,3.263,0.544v11.692c-1.189-0.51-2.617-0.782-4.045-0.782
	c-5.234,0-7.92,2.686-7.92,7.92v18.695H457.436z M504.479,272.765c-3.161,0-5.575,2.312-5.847,5.541h11.693
	C510.088,274.94,507.742,272.765,504.479,272.765z M510.733,289.489h12.407c-1.156,8.09-8.227,13.121-18.525,13.121
	c-12.305,0-19.613-7.308-19.613-19.511c0-12.271,7.377-19.919,19.172-19.919c11.624,0,19.137,7.41,19.137,18.899v3.773h-24.882
	v0.884c0,3.671,2.651,6.322,6.391,6.322C507.641,293.058,509.918,291.732,510.733,289.489z M547.206,315.424h-4.963v-10.367h2.686
	c3.942,0,5.71-0.714,5.71-2.379c0-0.306-0.068-0.714-0.17-1.02l-12.305-37.525h15.466l5.711,27.532h0.271l5.677-27.532h14.718
	l-11.183,36.642C565.629,311.209,559.408,315.424,547.206,315.424z M600.333,302.609c-12.236,0-19.714-7.07-19.714-19.749
	c0-12.338,7.682-19.681,19.714-19.681c12.102,0,19.749,7.274,19.749,19.681C620.082,295.573,612.604,302.609,600.333,302.609z
	 M600.333,292.65c3.468,0,5.608-3.467,5.608-9.755c0-6.118-2.175-9.755-5.608-9.755c-3.398,0-5.574,3.637-5.574,9.755
	C594.759,289.183,596.832,292.65,600.333,292.65z M662.639,264.132v37.525h-13.597v-7.376h-0.271
	c-1.496,5.099-4.997,8.124-10.605,8.124c-8.056,0-13.97-5.269-13.97-14.208v-24.065h13.936v20.938c0,3.977,2.142,6.084,5.405,6.084
	c3.127,0,5.166-2.413,5.166-6.05v-20.972H662.639z M238.603,368.468c3.773,0,5.982-2.787,5.982-8.192c0-5.336-2.243-8.6-5.982-8.6
	c-3.739,0-5.949,3.263-5.949,8.566C232.654,365.647,234.83,368.468,238.603,368.468z M238.059,393.146
	c-11.387,0-18.253-4.929-18.831-11.896h13.393c0.408,1.801,2.617,3.093,5.744,3.093c4.147,0,6.152-2.141,6.152-5.302v-7.206h-0.272
	c-1.224,3.943-5.608,6.696-11.217,6.696c-8.77,0-14.65-6.628-14.65-18.389c0-12.067,5.506-19.205,14.854-19.205
	c5.472,0,9.551,3.093,11.013,7.308h0.272v-6.764h13.937v37.22C258.454,387.639,250.126,393.146,238.059,393.146z M282.451,379.957
	c-12.237,0-19.715-7.07-19.715-19.749c0-12.338,7.682-19.681,19.715-19.681c12.101,0,19.748,7.274,19.748,19.681
	C302.199,372.921,294.722,379.957,282.451,379.957z M282.451,369.998c3.467,0,5.608-3.467,5.608-9.755
	c0-6.119-2.175-9.755-5.608-9.755c-3.399,0-5.575,3.637-5.575,9.755C276.876,366.531,278.95,369.998,282.451,369.998z
	 M306.482,379.005v-37.526h13.597v7.376h0.271c1.903-5.269,5.812-8.124,11.523-8.124c8.43,0,13.052,5.234,13.052,14.242v24.031
	H330.99v-20.938c0-3.773-1.768-6.084-5.269-6.084c-3.298,0-5.303,2.549-5.303,6.05v20.972H306.482z M349.991,379.005v-37.526h13.596
	v7.376h0.272c1.903-5.269,5.812-8.124,11.522-8.124c8.43,0,13.053,5.234,13.053,14.242v24.031h-13.937v-20.938
	c0-3.773-1.768-6.084-5.269-6.084c-3.297,0-5.303,2.549-5.303,6.05v20.972H349.991z M409.951,370.236
	c3.093,0,5.948-1.733,5.948-4.487v-2.447l-5.915,0.408c-2.651,0.204-4.146,1.462-4.146,3.297
	C405.838,369.046,407.503,370.236,409.951,370.236z M404.75,379.549c-6.832,0-12.645-4.691-12.645-11.455
	c0-7.206,5.541-11.115,15.568-11.727l8.226-0.51v-1.835c0-2.516-1.903-3.875-4.521-3.875c-2.854,0-4.69,1.563-4.895,3.467h-12.44
	c0.34-8.021,7.138-13.086,18.083-13.086c10.401,0,17.369,5.201,17.369,12.814v25.663h-13.596v-5.031h-0.272
	C413.655,377.646,409.101,379.549,404.75,379.549z M461.65,379.549c-9.245,0-14.615-7.172-14.615-19.409
	c0-12.067,5.506-19.205,14.854-19.205c5.473,0,9.552,3.093,11.013,7.308h0.272v-18.287h13.937v49.049h-13.937v-6.492h-0.272
	C471.645,376.456,467.293,379.549,461.65,379.549z M467.26,351.677c-3.739,0-5.949,3.263-5.949,8.566
	c0,5.371,2.176,8.565,5.949,8.565c3.772,0,5.981-3.127,5.981-8.532C473.241,354.906,470.998,351.677,467.26,351.677z
	 M511.107,379.957c-12.236,0-19.715-7.07-19.715-19.749c0-12.338,7.682-19.681,19.715-19.681c12.101,0,19.749,7.274,19.749,19.681
	C530.856,372.921,523.378,379.957,511.107,379.957z M511.107,369.998c3.467,0,5.608-3.467,5.608-9.755
	c0-6.119-2.175-9.755-5.608-9.755c-3.399,0-5.574,3.637-5.574,9.755C505.533,366.531,507.606,369.998,511.107,369.998z
	 M534.255,344.675c0-9.381,6.935-15.194,18.22-15.194c10.877,0,17.879,5.472,17.879,14.004c0,4.928-2.209,8.293-7.41,11.285
	c-4.759,2.719-6.05,4.147-6.05,7.206v1.428h-12.067l-0.102-0.816c-0.85-6.22,0.714-9.279,5.438-11.999
	c4.826-2.788,5.948-4.011,5.948-6.798c0-2.277-1.938-3.841-4.589-3.841c-2.686,0-4.589,1.938-4.623,4.725H534.255z M551.114,380.365
	c-3.977,0-7.206-2.991-7.206-6.798c0-3.773,3.229-6.764,7.206-6.764c3.978,0,7.24,2.991,7.24,6.764
	C558.354,377.374,555.092,380.365,551.114,380.365z"/>
<rect x="216.713" y="237.845" fill="#EEE3C1" width="1.934" height="73.481"/>
<path fill="#656153" d="M787.154,187.566v-10.629c0-1.6-1.303-2.904-2.904-2.904h-32.864c-1.604,0-2.905,1.301-2.905,2.904v10.629
	c0,1.601,1.296,2.904,2.883,2.904h32.908C785.859,190.47,787.154,189.17,787.154,187.566z M787.076,190.47v1.028
	c-0.79,0.57-1.759,0.906-2.805,0.906h1.402h-1.402v-1.934H787.076z M785.674,192.403h1.402H785.674z M787.076,190.47h-2.805v1.934
	h-32.908c-2.66,0-4.816-2.173-4.816-4.837v-10.629c0-2.672,2.168-4.837,4.839-4.837h32.864c2.672,0,4.838,2.173,4.838,4.837v10.629
	c0,1.62-0.794,3.054-2.012,3.932V190.47z"/>
<path fill="#656153" d="M791.022,178.867c1.668,0.43,2.9,1.944,2.9,3.746c0,1.802-1.232,3.316-2.9,3.746V178.867z"/>
<path fill="#EEE3C1" d="M752.348,175.967h30.939c1.068,0,1.934,0.866,1.934,1.934v8.702c0,1.068-0.865,1.934-1.934,1.934h-30.939
	c-1.067,0-1.934-0.866-1.934-1.934V177.9C750.414,176.833,751.28,175.967,752.348,175.967z"/>
<path fill="#EEE3C1" d="M482.353,190.877c-3.92,0-6.243-3.172-6.243-8.6c0-5.405,2.356-8.566,6.243-8.566
	c3.875,0,6.231,3.161,6.231,8.588C488.584,187.705,486.262,190.877,482.353,190.877z M482.353,188.453
	c2.073,0,3.274-2.153,3.274-6.175c0-4-1.224-6.13-3.274-6.13s-3.286,2.142-3.286,6.13
	C479.066,186.3,480.279,188.453,482.353,188.453z M493.875,188.736c-1.064,0-1.812-0.771-1.812-1.791c0-1.031,0.748-1.79,1.812-1.79
	c1.077,0,1.813,0.759,1.813,1.79C495.688,187.966,494.952,188.736,493.875,188.736z M493.875,180.238
	c-1.064,0-1.812-0.759-1.812-1.779c0-1.031,0.748-1.79,1.812-1.79c1.077,0,1.813,0.759,1.813,1.79
	C495.688,179.479,494.952,180.238,493.875,180.238z M505.41,190.877c-3.921,0-6.243-3.172-6.243-8.6
	c0-5.405,2.356-8.566,6.243-8.566c3.874,0,6.231,3.161,6.231,8.588C511.642,187.705,509.318,190.877,505.41,190.877z
	 M505.41,188.453c2.073,0,3.273-2.153,3.273-6.175c0-4-1.223-6.13-3.273-6.13s-3.286,2.142-3.286,6.13
	C502.124,186.3,503.336,188.453,505.41,188.453z M521.079,190.866c-2.401,0-4.294-1.133-5.382-3.229
	c-0.759-1.337-1.155-3.082-1.155-5.167c0-5.496,2.458-8.759,6.628-8.759c2.98,0,5.269,1.768,5.756,4.453h-2.923
	c-0.363-1.235-1.45-2.005-2.855-2.005c-2.391,0-3.807,2.232-3.807,5.971h0.192c0.771-1.552,2.312-2.447,4.237-2.447
	c3.104,0,5.382,2.3,5.382,5.438C527.152,188.487,524.637,190.866,521.079,190.866z M521.045,188.43c1.836,0,3.241-1.394,3.241-3.218
	c0-1.87-1.349-3.207-3.218-3.207c-1.87,0-3.24,1.337-3.24,3.161C517.828,187.025,519.222,188.43,521.045,188.43z M263.401,186.483
	l-4.103,3.986l-4.182-4.051c1.001-1.109,2.473-1.811,4.114-1.811C260.902,184.608,262.399,185.336,263.401,186.483z M267.614,182.39
	l-2.105,2.045c-1.545-1.665-3.786-2.712-6.279-2.712c-2.463,0-4.68,1.022-6.223,2.653l-2.108-2.042
	c2.083-2.152,5.045-3.497,8.331-3.497C262.544,178.837,265.528,180.205,267.614,182.39z M271.823,178.301l-2.104,2.044
	c-2.626-2.704-6.354-4.393-10.489-4.393c-4.108,0-7.815,1.667-10.438,4.341l-2.107-2.041c3.163-3.196,7.614-5.186,12.545-5.186
	C264.186,173.066,268.658,175.076,271.823,178.301z M234.116,173.061c0-0.531,0.446-0.961,0.978-0.961h2.878
	c0.54,0,0.978,0.418,0.978,0.961v16.447c0,0.531-0.446,0.962-0.978,0.962h-2.878c-0.54,0-0.978-0.418-0.978-0.962V173.061z
	 M226.381,177.907c0-0.538,0.446-0.974,0.978-0.974h2.878c0.54,0,0.978,0.45,0.978,0.974v11.589c0,0.538-0.446,0.974-0.978,0.974
	h-2.878c-0.54,0-0.978-0.451-0.978-0.974V177.907z M218.646,181.764c0-0.532,0.446-0.962,0.978-0.962h2.878
	c0.54,0,0.978,0.416,0.978,0.962v7.744c0,0.531-0.446,0.962-0.978,0.962h-2.878c-0.54,0-0.978-0.416-0.978-0.962V181.764z
	 M210.912,185.626c0-0.529,0.446-0.958,0.978-0.958h2.878c0.54,0,0.979,0.417,0.979,0.958v3.885c0,0.529-0.446,0.958-0.979,0.958
	h-2.878c-0.54,0-0.978-0.417-0.978-0.958V185.626z"/>
</svg>
