<?xml version="1.0" encoding="utf-8"?>
<!-- Generator: Adobe Illustrator 16.0.4, SVG Export Plug-In . SVG Version: 6.00 Build 0)  -->
<!DOCTYPE svg PUBLIC "-//W3C//DTD SVG 1.1//EN" "http://www.w3.org/Graphics/SVG/1.1/DTD/svg11.dtd">
<svg version="1.1" id="Layer_1" xmlns="http://www.w3.org/2000/svg" xmlns:xlink="http://www.w3.org/1999/xlink" x="0px" y="0px"
	 width="698.067px" height="1399.999px" viewBox="150.967 0 698.067 1399.999" enable-background="new 150.967 0 698.067 1399.999"
	 xml:space="preserve">
<filter  width="103.8%" height="105.7%" id="new-task-z" filterUnits="objectBoundingBox" x="-1.9%" y="-1.4%">
	<feOffset  dy="1" in="SourceAlpha" result="shadowOffsetOuter1"></feOffset>
	<feComposite  in="shadowOffsetOuter1" in2="SourceAlpha" operator="out" result="shadowOffsetOuter1"></feComposite>
	<feColorMatrix  values="0 0 0 0 0 0 0 0 0 0 0 0 0 0 0 0 0 0 0.35 0" in="shadowOffsetOuter1"></feColorMatrix>
</filter>
<filter  width="103.8%" height="105.7%" id="new-task-x" filterUnits="objectBoundingBox" x="-1.9%" y="-1.4%">
	<feOffset  dy="1" in="SourceAlpha" result="shadowOffsetOuter1"></feOffset>
	<feComposite  in="shadowOffsetOuter1" in2="SourceAlpha" operator="out" result="shadowOffsetOuter1"></feComposite>
	<feColorMatrix  values="0 0 0 0 0 0 0 0 0 0 0 0 0 0 0 0 0 0 0.35 0" in="shadowOffsetOuter1"></feColorMatrix>
</filter>
<filter  width="103.8%" height="105.7%" id="new-task-v" filterUnits="objectBoundingBox" x="-1.9%" y="-1.4%">
	<feOffset  dy="1" in="SourceAlpha" result="shadowOffsetOuter1"></feOffset>
	<feComposite  in="shadowOffsetOuter1" in2="SourceAlpha" operator="out" result="shadowOffsetOuter1"></feComposite>
	<feColorMatrix  values="0 0 0 0 0 0 0 0 0 0 0 0 0 0 0 0 0 0 0.35 0" in="shadowOffsetOuter1"></feColorMatrix>
</filter>
<filter  width="103.8%" height="105.7%" id="new-task-t" filterUnits="objectBoundingBox" x="-1.9%" y="-1.4%">
	<feOffset  dy="1" in="SourceAlpha" result="shadowOffsetOuter1"></feOffset>
	<feComposite  in="shadowOffsetOuter1" in2="SourceAlpha" operator="out" result="shadowOffsetOuter1"></feComposite>
	<feColorMatrix  values="0 0 0 0 0 0 0 0 0 0 0 0 0 0 0 0 0 0 0.35 0" in="shadowOffsetOuter1"></feColorMatrix>
</filter>
<filter  width="103.8%" height="105.7%" id="new-task-r" filterUnits="objectBoundingBox" x="-1.9%" y="-1.4%">
	<feOffset  dy="1" in="SourceAlpha" result="shadowOffsetOuter1"></feOffset>
	<feComposite  in="shadowOffsetOuter1" in2="SourceAlpha" operator="out" result="shadowOffsetOuter1"></feComposite>
	<feColorMatrix  values="0 0 0 0 0 0 0 0 0 0 0 0 0 0 0 0 0 0 0.35 0" in="shadowOffsetOuter1"></feColorMatrix>
</filter>
<filter  width="103.8%" height="105.7%" id="new-task-p" filterUnits="objectBoundingBox" x="-1.9%" y="-1.4%">
	<feOffset  dy="1" in="SourceAlpha" result="shadowOffsetOuter1"></feOffset>
	<feComposite  in="shadowOffsetOuter1" in2="SourceAlpha" operator="out" result="shadowOffsetOuter1"></feComposite>
	<feColorMatrix  values="0 0 0 0 0 0 0 0 0 0 0 0 0 0 0 0 0 0 0.35 0" in="shadowOffsetOuter1"></feColorMatrix>
</filter>
<filter  width="103.8%" height="105.7%" id="new-task-n" filterUnits="objectBoundingBox" x="-1.9%" y="-1.4%">
	<feOffset  dy="1" in="SourceAlpha" result="shadowOffsetOuter1"></feOffset>
	<feComposite  in="shadowOffsetOuter1" in2="SourceAlpha" operator="out" result="shadowOffsetOuter1"></feComposite>
	<feColorMatrix  values="0 0 0 0 0 0 0 0 0 0 0 0 0 0 0 0 0 0 0.35 0" in="shadowOffsetOuter1"></feColorMatrix>
</filter>
<filter  width="102.9%" height="105.7%" id="new-task-l" filterUnits="objectBoundingBox" x="-1.4%" y="-1.4%">
	<feOffset  dy="1" in="SourceAlpha" result="shadowOffsetOuter1"></feOffset>
	<feComposite  in="shadowOffsetOuter1" in2="SourceAlpha" operator="out" result="shadowOffsetOuter1"></feComposite>
	<feColorMatrix  values="0 0 0 0 0 0 0 0 0 0 0 0 0 0 0 0 0 0 0.35 0" in="shadowOffsetOuter1"></feColorMatrix>
</filter>
<filter  width="103%" height="105.7%" id="new-task-j" filterUnits="objectBoundingBox" x="-1.5%" y="-1.4%">
	<feOffset  dy="1" in="SourceAlpha" result="shadowOffsetOuter1"></feOffset>
	<feComposite  in="shadowOffsetOuter1" in2="SourceAlpha" operator="out" result="shadowOffsetOuter1"></feComposite>
	<feColorMatrix  values="0 0 0 0 0 0 0 0 0 0 0 0 0 0 0 0 0 0 0.35 0" in="shadowOffsetOuter1"></feColorMatrix>
</filter>
<filter  width="102.9%" height="105.7%" id="new-task-h" filterUnits="objectBoundingBox" x="-1.5%" y="-1.4%">
	<feOffset  dy="1" in="SourceAlpha" result="shadowOffsetOuter1"></feOffset>
	<feComposite  in="shadowOffsetOuter1" in2="SourceAlpha" operator="out" result="shadowOffsetOuter1"></feComposite>
	<feColorMatrix  values="0 0 0 0 0 0 0 0 0 0 0 0 0 0 0 0 0 0 0.35 0" in="shadowOffsetOuter1"></feColorMatrix>
</filter>
<filter  width="103.8%" height="105.7%" id="new-task-f" filterUnits="objectBoundingBox" x="-1.9%" y="-1.4%">
	<feOffset  dy="1" in="SourceAlpha" result="shadowOffsetOuter1"></feOffset>
	<feComposite  in="shadowOffsetOuter1" in2="SourceAlpha" operator="out" result="shadowOffsetOuter1"></feComposite>
	<feColorMatrix  values="0 0 0 0 0 0 0 0 0 0 0 0 0 0 0 0 0 0 0.35 0" in="shadowOffsetOuter1"></feColorMatrix>
</filter>
<filter  width="100.8%" height="105.7%" id="new-task-d" filterUnits="objectBoundingBox" x="-.4%" y="-1.4%">
	<feOffset  dy="1" in="SourceAlpha" result="shadowOffsetOuter1"></feOffset>
	<feComposite  in="shadowOffsetOuter1" in2="SourceAlpha" operator="out" result="shadowOffsetOuter1"></feComposite>
	<feColorMatrix  values="0 0 0 0 0 0 0 0 0 0 0 0 0 0 0 0 0 0 0.35 0" in="shadowOffsetOuter1"></feColorMatrix>
</filter>
<filter  width="101.4%" height="105.7%" id="new-task-b" filterUnits="objectBoundingBox" x="-.7%" y="-1.4%">
	<feOffset  dy="1" in="SourceAlpha" result="shadowOffsetOuter1"></feOffset>
	<feComposite  in="shadowOffsetOuter1" in2="SourceAlpha" operator="out" result="shadowOffsetOuter1"></feComposite>
	<feColorMatrix  values="0 0 0 0 0 0 0 0 0 0 0 0 0 0 0 0 0 0 0.35 0" in="shadowOffsetOuter1"></feColorMatrix>
</filter>
<filter  width="103.8%" height="105.7%" id="new-task-an" filterUnits="objectBoundingBox" x="-1.9%" y="-1.4%">
	<feOffset  dy="1" in="SourceAlpha" result="shadowOffsetOuter1"></feOffset>
	<feComposite  in="shadowOffsetOuter1" in2="SourceAlpha" operator="out" result="shadowOffsetOuter1"></feComposite>
	<feColorMatrix  values="0 0 0 0 0 0 0 0 0 0 0 0 0 0 0 0 0 0 0.35 0" in="shadowOffsetOuter1"></feColorMatrix>
</filter>
<filter  width="103.8%" height="105.7%" id="new-task-al" filterUnits="objectBoundingBox" x="-1.9%" y="-1.4%">
	<feOffset  dy="1" in="SourceAlpha" result="shadowOffsetOuter1"></feOffset>
	<feComposite  in="shadowOffsetOuter1" in2="SourceAlpha" operator="out" result="shadowOffsetOuter1"></feComposite>
	<feColorMatrix  values="0 0 0 0 0 0 0 0 0 0 0 0 0 0 0 0 0 0 0.35 0" in="shadowOffsetOuter1"></feColorMatrix>
</filter>
<filter  width="103.8%" height="105.7%" id="new-task-aj" filterUnits="objectBoundingBox" x="-1.9%" y="-1.4%">
	<feOffset  dy="1" in="SourceAlpha" result="shadowOffsetOuter1"></feOffset>
	<feComposite  in="shadowOffsetOuter1" in2="SourceAlpha" operator="out" result="shadowOffsetOuter1"></feComposite>
	<feColorMatrix  values="0 0 0 0 0 0 0 0 0 0 0 0 0 0 0 0 0 0 0.35 0" in="shadowOffsetOuter1"></feColorMatrix>
</filter>
<filter  width="103.8%" height="105.7%" id="new-task-ah" filterUnits="objectBoundingBox" x="-1.9%" y="-1.4%">
	<feOffset  dy="1" in="SourceAlpha" result="shadowOffsetOuter1"></feOffset>
	<feComposite  in="shadowOffsetOuter1" in2="SourceAlpha" operator="out" result="shadowOffsetOuter1"></feComposite>
	<feColorMatrix  values="0 0 0 0 0 0 0 0 0 0 0 0 0 0 0 0 0 0 0.35 0" in="shadowOffsetOuter1"></feColorMatrix>
</filter>
<filter  width="103.8%" height="105.7%" id="new-task-af" filterUnits="objectBoundingBox" x="-1.9%" y="-1.4%">
	<feOffset  dy="1" in="SourceAlpha" result="shadowOffsetOuter1"></feOffset>
	<feComposite  in="shadowOffsetOuter1" in2="SourceAlpha" operator="out" result="shadowOffsetOuter1"></feComposite>
	<feColorMatrix  values="0 0 0 0 0 0 0 0 0 0 0 0 0 0 0 0 0 0 0.35 0" in="shadowOffsetOuter1"></feColorMatrix>
</filter>
<filter  width="103.8%" height="105.7%" id="new-task-ad" filterUnits="objectBoundingBox" x="-1.9%" y="-1.4%">
	<feOffset  dy="1" in="SourceAlpha" result="shadowOffsetOuter1"></feOffset>
	<feComposite  in="shadowOffsetOuter1" in2="SourceAlpha" operator="out" result="shadowOffsetOuter1"></feComposite>
	<feColorMatrix  values="0 0 0 0 0 0 0 0 0 0 0 0 0 0 0 0 0 0 0.35 0" in="shadowOffsetOuter1"></feColorMatrix>
</filter>
<filter  width="103.8%" height="105.7%" id="new-task-ab" filterUnits="objectBoundingBox" x="-1.9%" y="-1.4%">
	<feOffset  dy="1" in="SourceAlpha" result="shadowOffsetOuter1"></feOffset>
	<feComposite  in="shadowOffsetOuter1" in2="SourceAlpha" operator="out" result="shadowOffsetOuter1"></feComposite>
	<feColorMatrix  values="0 0 0 0 0 0 0 0 0 0 0 0 0 0 0 0 0 0 0.35 0" in="shadowOffsetOuter1"></feColorMatrix>
</filter>
<filter  width="103.8%" height="105.7%" id="new-task-Z" filterUnits="objectBoundingBox" x="-1.9%" y="-1.4%">
	<feOffset  dy="1" in="SourceAlpha" result="shadowOffsetOuter1"></feOffset>
	<feComposite  in="shadowOffsetOuter1" in2="SourceAlpha" operator="out" result="shadowOffsetOuter1"></feComposite>
	<feColorMatrix  values="0 0 0 0 0 0 0 0 0 0 0 0 0 0 0 0 0 0 0.35 0" in="shadowOffsetOuter1"></feColorMatrix>
</filter>
<filter  width="103.8%" height="105.7%" id="new-task-X" filterUnits="objectBoundingBox" x="-1.9%" y="-1.4%">
	<feOffset  dy="1" in="SourceAlpha" result="shadowOffsetOuter1"></feOffset>
	<feComposite  in="shadowOffsetOuter1" in2="SourceAlpha" operator="out" result="shadowOffsetOuter1"></feComposite>
	<feColorMatrix  values="0 0 0 0 0 0 0 0 0 0 0 0 0 0 0 0 0 0 0.35 0" in="shadowOffsetOuter1"></feColorMatrix>
</filter>
<filter  width="103.8%" height="105.7%" id="new-task-V" filterUnits="objectBoundingBox" x="-1.9%" y="-1.4%">
	<feOffset  dy="1" in="SourceAlpha" result="shadowOffsetOuter1"></feOffset>
	<feComposite  in="shadowOffsetOuter1" in2="SourceAlpha" operator="out" result="shadowOffsetOuter1"></feComposite>
	<feColorMatrix  values="0 0 0 0 0 0 0 0 0 0 0 0 0 0 0 0 0 0 0.35 0" in="shadowOffsetOuter1"></feColorMatrix>
</filter>
<filter  width="103.8%" height="105.7%" id="new-task-T" filterUnits="objectBoundingBox" x="-1.9%" y="-1.4%">
	<feOffset  dy="1" in="SourceAlpha" result="shadowOffsetOuter1"></feOffset>
	<feComposite  in="shadowOffsetOuter1" in2="SourceAlpha" operator="out" result="shadowOffsetOuter1"></feComposite>
	<feColorMatrix  values="0 0 0 0 0 0 0 0 0 0 0 0 0 0 0 0 0 0 0.35 0" in="shadowOffsetOuter1"></feColorMatrix>
</filter>
<filter  width="103.8%" height="105.7%" id="new-task-R" filterUnits="objectBoundingBox" x="-1.9%" y="-1.4%">
	<feOffset  dy="1" in="SourceAlpha" result="shadowOffsetOuter1"></feOffset>
	<feComposite  in="shadowOffsetOuter1" in2="SourceAlpha" operator="out" result="shadowOffsetOuter1"></feComposite>
	<feColorMatrix  values="0 0 0 0 0 0 0 0 0 0 0 0 0 0 0 0 0 0 0.35 0" in="shadowOffsetOuter1"></feColorMatrix>
</filter>
<filter  width="103.8%" height="105.7%" id="new-task-P" filterUnits="objectBoundingBox" x="-1.9%" y="-1.4%">
	<feOffset  dy="1" in="SourceAlpha" result="shadowOffsetOuter1"></feOffset>
	<feComposite  in="shadowOffsetOuter1" in2="SourceAlpha" operator="out" result="shadowOffsetOuter1"></feComposite>
	<feColorMatrix  values="0 0 0 0 0 0 0 0 0 0 0 0 0 0 0 0 0 0 0.35 0" in="shadowOffsetOuter1"></feColorMatrix>
</filter>
<filter  width="103.8%" height="105.7%" id="new-task-N" filterUnits="objectBoundingBox" x="-1.9%" y="-1.4%">
	<feOffset  dy="1" in="SourceAlpha" result="shadowOffsetOuter1"></feOffset>
	<feComposite  in="shadowOffsetOuter1" in2="SourceAlpha" operator="out" result="shadowOffsetOuter1"></feComposite>
	<feColorMatrix  values="0 0 0 0 0 0 0 0 0 0 0 0 0 0 0 0 0 0 0.35 0" in="shadowOffsetOuter1"></feColorMatrix>
</filter>
<filter  width="103.8%" height="105.7%" id="new-task-L" filterUnits="objectBoundingBox" x="-1.9%" y="-1.4%">
	<feOffset  dy="1" in="SourceAlpha" result="shadowOffsetOuter1"></feOffset>
	<feComposite  in="shadowOffsetOuter1" in2="SourceAlpha" operator="out" result="shadowOffsetOuter1"></feComposite>
	<feColorMatrix  values="0 0 0 0 0 0 0 0 0 0 0 0 0 0 0 0 0 0 0.35 0" in="shadowOffsetOuter1"></feColorMatrix>
</filter>
<filter  width="103.8%" height="105.7%" id="new-task-J" filterUnits="objectBoundingBox" x="-1.9%" y="-1.4%">
	<feOffset  dy="1" in="SourceAlpha" result="shadowOffsetOuter1"></feOffset>
	<feComposite  in="shadowOffsetOuter1" in2="SourceAlpha" operator="out" result="shadowOffsetOuter1"></feComposite>
	<feColorMatrix  values="0 0 0 0 0 0 0 0 0 0 0 0 0 0 0 0 0 0 0.35 0" in="shadowOffsetOuter1"></feColorMatrix>
</filter>
<filter  width="103.8%" height="105.7%" id="new-task-H" filterUnits="objectBoundingBox" x="-1.9%" y="-1.4%">
	<feOffset  dy="1" in="SourceAlpha" result="shadowOffsetOuter1"></feOffset>
	<feComposite  in="shadowOffsetOuter1" in2="SourceAlpha" operator="out" result="shadowOffsetOuter1"></feComposite>
	<feColorMatrix  values="0 0 0 0 0 0 0 0 0 0 0 0 0 0 0 0 0 0 0.35 0" in="shadowOffsetOuter1"></feColorMatrix>
</filter>
<filter  width="103.8%" height="105.7%" id="new-task-F" filterUnits="objectBoundingBox" x="-1.9%" y="-1.4%">
	<feOffset  dy="1" in="SourceAlpha" result="shadowOffsetOuter1"></feOffset>
	<feComposite  in="shadowOffsetOuter1" in2="SourceAlpha" operator="out" result="shadowOffsetOuter1"></feComposite>
	<feColorMatrix  values="0 0 0 0 0 0 0 0 0 0 0 0 0 0 0 0 0 0 0.35 0" in="shadowOffsetOuter1"></feColorMatrix>
</filter>
<filter  width="103.8%" height="105.7%" id="new-task-D" filterUnits="objectBoundingBox" x="-1.9%" y="-1.4%">
	<feOffset  dy="1" in="SourceAlpha" result="shadowOffsetOuter1"></feOffset>
	<feComposite  in="shadowOffsetOuter1" in2="SourceAlpha" operator="out" result="shadowOffsetOuter1"></feComposite>
	<feColorMatrix  values="0 0 0 0 0 0 0 0 0 0 0 0 0 0 0 0 0 0 0.35 0" in="shadowOffsetOuter1"></feColorMatrix>
</filter>
<filter  width="102.9%" height="105.7%" id="new-task-B" filterUnits="objectBoundingBox" x="-1.4%" y="-1.4%">
	<feOffset  dy="1" in="SourceAlpha" result="shadowOffsetOuter1"></feOffset>
	<feComposite  in="shadowOffsetOuter1" in2="SourceAlpha" operator="out" result="shadowOffsetOuter1"></feComposite>
	<feColorMatrix  values="0 0 0 0 0 0 0 0 0 0 0 0 0 0 0 0 0 0 0.35 0" in="shadowOffsetOuter1"></feColorMatrix>
</filter>
<g>
	<path fill="#EEE3C1" d="M845.166,359.636v926.334c0,39.65-4.129,54.028-11.881,68.524c-7.752,14.495-19.129,25.872-33.624,33.624
		c-14.496,7.752-28.874,11.881-68.524,11.881h-460.34c-39.65,0-54.028-4.129-68.524-11.881s-25.872-19.129-33.624-33.624
		c-7.752-14.496-11.881-28.874-11.881-68.524V471.823h-0.843c-1.724,0-2.349-0.181-2.979-0.518c-0.63-0.337-1.125-0.832-1.462-1.462
		s-0.517-1.255-0.517-2.979v-80.968c0-1.724,0.18-2.349,0.517-2.979s0.832-1.125,1.462-1.462c0.63-0.337,1.255-0.517,2.979-0.517
		h0.843v-21.271h-0.843c-1.724,0-2.349-0.179-2.979-0.517c-0.63-0.337-1.125-0.832-1.462-1.462s-0.517-1.255-0.517-2.979v-80.969
		c0-1.724,0.18-2.349,0.517-2.979c0.337-0.63,0.832-1.125,1.462-1.462c0.63-0.337,1.255-0.517,2.979-0.517h0.843v-52.21h-0.843
		c-1.724,0-2.349-0.18-2.979-0.517c-0.63-0.337-1.125-0.832-1.462-1.462c-0.337-0.63-0.517-1.255-0.517-2.979v-40.361
		c0-1.724,0.18-2.349,0.517-2.979s0.832-1.125,1.462-1.462c0.63-0.337,1.255-0.517,2.979-0.517h0.843v-52.269
		c0-39.65,4.128-54.029,11.881-68.524c7.752-14.496,19.128-25.872,33.624-33.624C216.769,4.128,231.146,0,270.797,0h460.34
		c39.65,0,54.028,4.128,68.524,11.881c14.495,7.752,25.872,19.128,33.624,33.624s11.881,28.874,11.881,68.524v154.788
		c0.941,0.065,1.414,0.23,1.889,0.484c0.63,0.337,1.125,0.832,1.462,1.462c0.337,0.63,0.518,1.255,0.518,2.979v80.969
		c0,1.724-0.181,2.349-0.518,2.979c-0.337,0.63-0.832,1.125-1.462,1.462C846.58,359.406,846.107,359.57,845.166,359.636z
		 M500.967,1361.326c25.198,0,46.409-21.211,46.409-46.409c0-27.132-21.211-48.343-46.409-48.343
		c-27.132,0-48.343,21.211-48.343,48.343C452.624,1340.115,473.835,1361.326,500.967,1361.326z M500.967,1357.459
		c-24.996,0-44.475-19.479-44.475-42.542c0-24.995,19.479-44.475,44.475-44.475c23.062,0,42.541,19.479,42.541,44.475
		C543.508,1337.979,524.029,1357.459,500.967,1357.459z M382.044,94.751c5.874,0,10.636-4.762,10.636-10.635
		c0-5.874-4.762-10.636-10.636-10.636c-5.873,0-10.635,4.762-10.635,10.636S376.171,94.751,382.044,94.751z M500.967,52.21
		c3.204,0,5.801-2.597,5.801-5.801s-2.597-5.801-5.801-5.801s-5.801,2.597-5.801,5.801S497.763,52.21,500.967,52.21z
		 M443.923,79.282c-2.67,0-4.835,2.165-4.835,4.834s2.165,4.834,4.835,4.834h114.088c2.67,0,4.835-2.164,4.835-4.834
		s-2.165-4.834-4.835-4.834H443.923z"/>
	<path fill="#0A0A0A" d="M197.375,156.63h605.249c2.136,0,3.868,1.731,3.868,3.867v1077.072c0,2.136-1.732,3.866-3.868,3.866
		H197.375c-2.136,0-3.867-1.73-3.867-3.866V160.497C193.508,158.361,195.24,156.63,197.375,156.63z"/>
	<g>
		<g>
			<rect id="new-task-a" x="197.375" y="887.569" fill-opacity="0.6" width="605.249" height="348.065"/>
		</g>
		<g>
			<rect id="new-task-a_1_" x="197.375" y="887.569" fill-opacity="0.1" width="605.249" height="348.065"/>
		</g>
	</g>
	<g filter="url(#new-task-b)">
		<path id="new-task-c_3_" d="M666.227,1161.511h121.889c5.339,0,9.668,4.329,9.668,9.669v48.342c0,5.341-4.329,9.67-9.668,9.67
			H666.227c-5.34,0-9.668-4.329-9.668-9.67v-48.342C656.559,1165.84,660.887,1161.511,666.227,1161.511z"/>
	</g>
	<g>
		<path id="new-task-c_1_" fill="#FFFFFF" fill-opacity="0.13" d="M666.227,1161.511h121.889c5.339,0,9.668,4.329,9.668,9.669
			v48.342c0,5.341-4.329,9.67-9.668,9.67H666.227c-5.34,0-9.668-4.329-9.668-9.67v-48.342
			C656.559,1165.84,660.887,1161.511,666.227,1161.511z"/>
	</g>
	<path fill="#FFFFFF" d="M686.845,1204.374v-16.286h2.479v2.418h0.241c0.482-1.587,2.355-2.704,4.517-2.704
		c0.424,0,0.968,0.03,1.3,0.075v2.599c-0.212-0.061-1.147-0.15-1.662-0.15c-2.478,0-4.274,1.662-4.274,3.958v10.092
		L686.845,1204.374L686.845,1204.374z M704.052,1190.098c-2.599,0-4.411,1.903-4.606,4.789h8.974
		C708.357,1192.001,706.635,1190.098,704.052,1190.098z M708.342,1200.159h2.6c-0.785,2.795-3.293,4.502-6.858,4.502
		c-4.517,0-7.342-3.265-7.342-8.415c0-5.121,2.87-8.444,7.342-8.444c4.396,0,7.07,3.127,7.07,8.188v0.997h-11.708v0.12
		c0.136,3.219,1.934,5.258,4.697,5.258C706.242,1202.364,707.662,1201.594,708.342,1200.159z M715.7,1183.873h2.599v4.215h3.625
		v2.176h-3.625v9.217c0,1.918,0.726,2.733,2.417,2.733c0.468,0,0.726-0.016,1.208-0.061v2.189c-0.514,0.091-1.012,0.15-1.524,0.15
		c-3.354,0-4.698-1.238-4.698-4.352v-9.88h-2.629v-2.176h2.629L715.7,1183.873L715.7,1183.873z M738.406,1188.088v16.286h-2.479
		v-2.554h-0.241c-0.815,1.812-2.554,2.841-5.046,2.841c-3.655,0-5.56-2.176-5.56-6.028v-10.545h2.599v9.911
		c0,2.931,1.088,4.29,3.687,4.29c2.871,0,4.44-1.707,4.44-4.562v-9.639H738.406z M742.683,1204.374v-16.286h2.479v2.418h0.241
		c0.482-1.587,2.355-2.704,4.518-2.704c0.423,0,0.967,0.03,1.299,0.075v2.599c-0.212-0.061-1.147-0.15-1.662-0.15
		c-2.478,0-4.273,1.662-4.273,3.958v10.092L742.683,1204.374L742.683,1204.374z M754.149,1204.374v-16.286h2.478v2.568h0.241
		c0.815-1.797,2.401-2.854,4.896-2.854c3.655,0,5.695,2.16,5.695,6.027v10.545h-2.599v-9.91c0-2.931-1.239-4.321-3.837-4.321
		c-2.6,0-4.275,1.737-4.275,4.594v9.639L754.149,1204.374L754.149,1204.374z"/>
	<g filter="url(#new-task-d)">
		<path id="new-task-e_3_" d="M423.319,1161.511h213.885c5.34,0,9.668,4.329,9.668,9.669v48.342c0,5.341-4.328,9.67-9.668,9.67
			H423.319c-5.341,0-9.669-4.329-9.669-9.67v-48.342C413.65,1165.84,417.979,1161.511,423.319,1161.511z"/>
	</g>
	<g>
		<path id="new-task-e_1_" fill="#FFFFFF" fill-opacity="0.3" d="M423.319,1161.511h213.885c5.34,0,9.668,4.329,9.668,9.669v48.342
			c0,5.341-4.328,9.67-9.668,9.67H423.319c-5.341,0-9.669-4.329-9.669-9.67v-48.342
			C413.65,1165.84,417.979,1161.511,423.319,1161.511z"/>
	</g>
	<path fill="#FFFFFF" d="M491.227,1192.545c0-2.704,2.613-4.743,6.073-4.743c3.414,0,5.786,1.691,6.133,4.365h-2.566
		c-0.349-1.299-1.617-2.16-3.581-2.16c-1.935,0-3.444,0.982-3.444,2.433c0,1.117,0.906,1.812,2.825,2.281l2.508,0.604
		c3.066,0.739,4.547,2.069,4.547,4.412c0,2.915-2.824,4.925-6.525,4.925c-3.625,0-6.118-1.737-6.405-4.441h2.675
		c0.438,1.374,1.736,2.251,3.821,2.251c2.189,0,3.762-1.043,3.762-2.538c0-1.117-0.846-1.874-2.583-2.297l-2.795-0.68
		C492.616,1196.216,491.227,1194.901,491.227,1192.545z M515.111,1187.802c4.153,0,6.844,3.309,6.844,8.431
		c0,5.091-2.704,8.43-6.844,8.43c-2.326,0-4.199-1.013-5.092-2.734h-0.241v7.887h-2.6v-21.726h2.479v2.72h0.241
		C510.941,1188.936,512.891,1187.802,515.111,1187.802z M514.492,1202.319c2.991,0,4.772-2.281,4.772-6.089
		s-1.781-6.089-4.759-6.089c-2.945,0-4.804,2.343-4.804,6.089C509.703,1199.963,511.562,1202.319,514.492,1202.319z
		 M530.431,1202.38c2.675,0,4.653-1.753,4.653-4.079v-1.496l-4.382,0.287c-2.479,0.167-3.565,1.027-3.565,2.659
		C527.137,1201.413,528.542,1202.38,530.431,1202.38z M529.947,1204.661c-3.157,0-5.499-1.874-5.499-4.851
		c0-2.916,2.146-4.593,5.937-4.818l4.699-0.287v-1.48c0-2.009-1.254-3.11-3.688-3.11c-1.948,0-3.309,0.74-3.671,2.022h-2.629
		c0.349-2.612,2.916-4.335,6.392-4.335c3.973,0,6.192,2.039,6.192,5.423v11.149h-2.478v-2.401h-0.241
		C533.905,1203.709,532.123,1204.661,529.947,1204.661z M555.343,1193.074h-2.629c-0.423-1.617-1.857-2.933-4.199-2.933
		c-2.931,0-4.773,2.343-4.773,6.028c0,3.762,1.873,6.148,4.773,6.148c2.19,0,3.717-1.014,4.199-2.855h2.629
		c-0.469,2.991-2.899,5.197-6.812,5.197c-4.562,0-7.479-3.31-7.479-8.49c0-5.076,2.9-8.369,7.463-8.369
		C552.473,1187.802,554.89,1190.173,555.343,1193.074z M565.057,1190.098c-2.598,0-4.41,1.903-4.606,4.789h8.974
		C569.362,1192.001,567.641,1190.098,565.057,1190.098z M569.348,1200.159h2.6c-0.786,2.795-3.294,4.502-6.859,4.502
		c-4.517,0-7.342-3.265-7.342-8.415c0-5.121,2.87-8.444,7.342-8.444c4.396,0,7.07,3.127,7.07,8.188v0.997H560.45v0.12
		c0.137,3.219,1.934,5.258,4.698,5.258C567.248,1202.364,568.668,1201.594,569.348,1200.159z"/>
	<g filter="url(#new-task-f)">
		<path id="new-task-g_3_" d="M362.794,1161.511h31.504c5.34,0,9.669,4.329,9.669,9.669v48.342c0,5.341-4.329,9.67-9.669,9.67
			h-31.504c-5.34,0-9.668-4.329-9.668-9.67v-48.342C353.126,1165.84,357.454,1161.511,362.794,1161.511z"/>
	</g>
	<g>
		<path id="new-task-g_1_" fill="#FFFFFF" fill-opacity="0.3" d="M362.794,1161.511h31.504c5.34,0,9.669,4.329,9.669,9.669v48.342
			c0,5.341-4.329,9.67-9.669,9.67h-31.504c-5.34,0-9.668-4.329-9.668-9.67v-48.342
			C353.126,1165.84,357.454,1161.511,362.794,1161.511z"/>
	</g>
	<path fill="#FFFFFF" d="M386.686,1214.042c0,0.802-0.664,1.45-1.455,1.45h-12.56c-0.804,0-1.455-0.645-1.455-1.45
		c0-0.801,0.648-1.45,1.457-1.45h4.827v-3.867c-4.834,0-10.152-5.851-10.152-9.712c0-2.886,0-6.23,0-6.23
		c0-0.808,0.646-1.46,1.451-1.46c0.801,0,1.45,0.656,1.45,1.446v6.245c0,2.9,3.867,6.769,8.701,6.769s8.702-3.867,8.702-6.769
		v-6.245c0-0.8,0.644-1.446,1.449-1.446c0.802,0,1.45,0.658,1.45,1.47v6.222c0,3.861-5.317,9.713-10.151,9.713v3.866h4.826
		C386.032,1212.592,386.686,1213.236,386.686,1214.042z M372.183,1183.58c0-3.734,3.037-6.762,6.769-6.762
		c3.738,0,6.769,3.026,6.769,6.762v13.549c0,3.734-3.038,6.762-6.769,6.762c-3.737,0-6.769-3.026-6.769-6.762V1183.58z
		 M375.083,1183.571v13.565c0,2.111,1.731,3.854,3.867,3.854c2.15,0,3.867-1.725,3.867-3.854v-13.565
		c0-2.111-1.731-3.854-3.867-3.854C376.8,1179.719,375.083,1181.443,375.083,1183.571z"/>
	<g filter="url(#new-task-h)">
		<path id="new-task-i_3_" d="M286.937,1161.511h46.836c5.34,0,9.668,4.329,9.668,9.669v48.342c0,5.341-4.328,9.67-9.668,9.67
			h-46.836c-5.34,0-9.668-4.329-9.668-9.67v-48.342C277.269,1165.84,281.597,1161.511,286.937,1161.511z"/>
	</g>
	<g>
		<path id="new-task-i_1_" fill="#FFFFFF" fill-opacity="0.13" d="M286.937,1161.511h46.836c5.34,0,9.668,4.329,9.668,9.669v48.342
			c0,5.341-4.328,9.67-9.668,9.67h-46.836c-5.34,0-9.668-4.329-9.668-9.67v-48.342
			C277.269,1165.84,281.597,1161.511,286.937,1161.511z"/>
	</g>
	<path fill="#FFFFFF" d="M309.952,1213.801c-10.413,0-18.854-8.44-18.854-18.854s8.441-18.854,18.854-18.854
		c10.412,0,18.854,8.44,18.854,18.854C328.806,1205.359,320.364,1213.801,309.952,1213.801z M309.952,1211.867
		c9.345,0,16.92-7.575,16.92-16.92c0-9.346-7.575-16.92-16.92-16.92s-16.92,7.574-16.92,16.92
		C293.032,1204.292,300.607,1211.867,309.952,1211.867z M304.15,1191.562c-1.335,0-2.417-1.082-2.417-2.418
		c0-1.334,1.082-2.416,2.417-2.416s2.418,1.082,2.418,2.416C306.568,1190.48,305.485,1191.562,304.15,1191.562z M315.753,1191.562
		c-1.335,0-2.417-1.082-2.417-2.418c0-1.334,1.082-2.416,2.417-2.416s2.417,1.082,2.417,2.416
		C318.17,1190.48,317.088,1191.562,315.753,1191.562z M296.682,1197.682c-0.48-1.51,0.345-2.293,1.867-1.801
		c0,0,4.333,1.896,11.403,1.896s11.401-1.896,11.401-1.896c1.513-0.516,2.388,0.332,1.854,1.833c0,0-1.945,10.431-13.257,10.431
		S296.682,1197.682,296.682,1197.682z M309.952,1199.66c-5.186,0-9.467-1.38-9.467-1.38c-1.021-0.279-1.309,0.189-0.562,0.935
		c0,0,1.544,3.273,10.028,3.273c8.482,0,10.057-3.299,10.057-3.299c0.693-0.781,0.422-1.177-0.609-0.904
		C319.398,1198.285,315.137,1199.66,309.952,1199.66z"/>
	<g filter="url(#new-task-j)">
		<path id="new-task-k_3_" d="M211.886,1161.511h46.03c5.34,0,9.668,4.329,9.668,9.669v48.342c0,5.341-4.329,9.67-9.668,9.67h-46.03
			c-5.34,0-9.668-4.329-9.668-9.67v-48.342C202.218,1165.84,206.546,1161.511,211.886,1161.511z"/>
	</g>
	<g>
		<path id="new-task-k_1_" fill="#FFFFFF" fill-opacity="0.13" d="M211.886,1161.511h46.03c5.34,0,9.668,4.329,9.668,9.669v48.342
			c0,5.341-4.329,9.67-9.668,9.67h-46.03c-5.34,0-9.668-4.329-9.668-9.67v-48.342
			C202.218,1165.84,206.546,1161.511,211.886,1161.511z"/>
	</g>
	<path fill="#FFFFFF" d="M216.814,1205.985v-18.778h-0.242l-5.544,4.02v-2.87l5.801-4.171h2.704v21.801L216.814,1205.985
		L216.814,1205.985z M225.274,1190.319c0-3.867,2.931-6.647,6.979-6.647c3.913,0,6.904,2.659,6.904,6.119
		c0,2.266-1.027,4.033-4.607,7.87l-5.242,5.635v0.242h10.212v2.447h-14.11v-1.873l7.538-8.233c2.81-3.052,3.49-4.23,3.49-5.982
		c0-2.176-1.858-3.853-4.26-3.853c-2.553,0-4.275,1.707-4.275,4.274v0.016h-2.629V1190.319L225.274,1190.319z M247.936,1195.939
		v-2.327h2.644c2.478,0,4.23-1.602,4.23-3.867c0-2.221-1.677-3.701-4.185-3.701s-4.154,1.39-4.381,3.731H243.6
		c0.272-3.776,2.976-6.104,7.13-6.104c3.807,0,6.843,2.538,6.843,5.711c0,2.599-1.435,4.502-3.822,5.076v0.241
		c2.961,0.378,4.759,2.433,4.759,5.408c0,3.596-3.369,6.391-7.675,6.391c-4.426,0-7.478-2.463-7.674-6.194h2.629
		c0.242,2.327,2.206,3.822,5.016,3.822c2.87,0,4.91-1.707,4.91-4.094c0-2.523-1.918-4.095-5.016-4.095h-2.764V1195.939z"/>
	<g filter="url(#new-task-l)">
		<path id="new-task-m_3_" d="M739.663,1077.716h48.451c5.339,0,9.668,4.329,9.668,9.669v48.342c0,5.34-4.329,9.669-9.668,9.669
			h-48.451c-5.34,0-9.669-4.329-9.669-9.669v-48.342C729.994,1082.045,734.323,1077.716,739.663,1077.716z"/>
	</g>
	<g>
		<path id="new-task-m_1_" fill="#FFFFFF" fill-opacity="0.13" d="M739.663,1077.716h48.451c5.339,0,9.668,4.329,9.668,9.669v48.342
			c0,5.34-4.329,9.669-9.668,9.669h-48.451c-5.34,0-9.669-4.329-9.669-9.669v-48.342
			C729.994,1082.045,734.323,1077.716,739.663,1077.716z"/>
	</g>
	<path fill="#FFFFFF" d="M742.708,1113.604c-1.132-1.131-1.118-2.979,0-4.097l13.015-13.015c0.759-0.76,2.241-1.374,3.321-1.374
		h20.293c3.735,0,6.765,3.034,6.765,6.771v19.33c0,3.74-3.05,6.771-6.765,6.771h-20.293c-1.076,0-2.572-0.624-3.321-1.373
		L742.708,1113.604z M770.907,1111.513l5.461-5.461c0.566-0.567,0.575-1.493,0.009-2.06c-0.57-0.57-1.488-0.562-2.06,0.009
		l-5.462,5.461l-5.461-5.461c-0.566-0.567-1.492-0.575-2.06-0.009c-0.57,0.569-0.562,1.488,0.009,2.06l5.461,5.461l-5.461,5.461
		c-0.566,0.567-0.575,1.493-0.009,2.061c0.57,0.569,1.488,0.562,2.06-0.008l5.461-5.462l5.462,5.462
		c0.566,0.565,1.492,0.573,2.06,0.008c0.57-0.57,0.562-1.488-0.009-2.061L770.907,1111.513z M745.898,1112.929
		c-0.759-0.758-0.756-1.989,0-2.745l11.475-11.474c0.381-0.381,1.126-0.688,1.645-0.688h20.312c2.139,0,3.872,1.733,3.872,3.878
		v19.313c0,2.143-1.729,3.879-3.872,3.879h-20.312c-0.526,0-1.264-0.308-1.645-0.688L745.898,1112.929z"/>
	<g filter="url(#new-task-n)">
		<path id="new-task-o_3_" d="M666.227,1077.716h31.505c5.34,0,9.669,4.329,9.669,9.669v48.342c0,5.34-4.329,9.669-9.669,9.669
			h-31.505c-5.34,0-9.668-4.329-9.668-9.669v-48.342C656.559,1082.045,660.887,1077.716,666.227,1077.716z"/>
	</g>
	<g>
		<path id="new-task-o_1_" fill="#FFFFFF" fill-opacity="0.3" d="M666.227,1077.716h31.505c5.34,0,9.669,4.329,9.669,9.669v48.342
			c0,5.34-4.329,9.669-9.669,9.669h-31.505c-5.34,0-9.668-4.329-9.668-9.669v-48.342
			C656.559,1082.045,660.887,1077.716,666.227,1077.716z"/>
	</g>
	<path fill="#FFFFFF" d="M665.23,1125.334v-24.549h3.87v3.918h0.096c1.155-2.598,3.657-4.344,6.963-4.344
		c3.353,0,5.831,1.699,6.893,4.674h0.095c1.369-2.928,4.249-4.674,7.695-4.674c4.862,0,8.002,3.164,8.002,8.025v16.948h-4.106
		v-16.004c0-3.354-1.864-5.335-5.1-5.335c-3.257,0-5.547,2.407-5.547,5.734v15.604h-4.106v-16.453c0-2.95-1.982-4.886-5.027-4.886
		c-3.258,0-5.618,2.549-5.618,5.948v15.391L665.23,1125.334L665.23,1125.334z"/>
	<g filter="url(#new-task-p)">
		<path id="new-task-q_3_" d="M605.702,1077.716h31.504c5.34,0,9.668,4.329,9.668,9.669v48.342c0,5.34-4.328,9.669-9.668,9.669
			h-31.504c-5.34,0-9.669-4.329-9.669-9.669v-48.342C596.033,1082.045,600.362,1077.716,605.702,1077.716z"/>
	</g>
	<g>
		<path id="new-task-q_1_" fill="#FFFFFF" fill-opacity="0.3" d="M605.702,1077.716h31.504c5.34,0,9.668,4.329,9.668,9.669v48.342
			c0,5.34-4.328,9.669-9.668,9.669h-31.504c-5.34,0-9.669-4.329-9.669-9.669v-48.342
			C596.033,1082.045,600.362,1077.716,605.702,1077.716z"/>
	</g>
	<path fill="#FFFFFF" d="M611.789,1125.334v-24.549h3.871v3.918h0.095c1.369-2.645,3.989-4.344,7.79-4.344
		c5.382,0,8.497,3.471,8.497,9.041v15.934h-4.107v-15.201c0-3.966-1.863-6.138-5.642-6.138c-3.871,0-6.396,2.738-6.396,6.893v14.446
		H611.789z"/>
	<g filter="url(#new-task-r)">
		<path id="new-task-s_3_" d="M545.177,1077.716h31.504c5.341,0,9.669,4.329,9.669,9.669v48.342c0,5.34-4.328,9.669-9.669,9.669
			h-31.504c-5.34,0-9.668-4.329-9.668-9.669v-48.342C535.509,1082.045,539.837,1077.716,545.177,1077.716z"/>
	</g>
	<g>
		<path id="new-task-s_1_" fill="#FFFFFF" fill-opacity="0.3" d="M545.177,1077.716h31.504c5.341,0,9.669,4.329,9.669,9.669v48.342
			c0,5.34-4.328,9.669-9.669,9.669h-31.504c-5.34,0-9.668-4.329-9.668-9.669v-48.342
			C535.509,1082.045,539.837,1077.716,545.177,1077.716z"/>
	</g>
	<path fill="#FFFFFF" d="M562.807,1125.759c-3.588,0-6.396-1.747-7.978-4.579h-0.095v4.154h-3.918v-34.062h4.105v13.618h0.095
		c1.534-2.809,4.392-4.531,7.86-4.531c6.185,0,10.362,5.005,10.362,12.699C573.24,1120.778,569.086,1125.759,562.807,1125.759z
		 M562.005,1103.972c-4.154,0-7.104,3.636-7.104,9.089c0,5.476,2.95,9.088,7.104,9.088c4.343,0,7.034-3.471,7.034-9.088
		C569.039,1107.488,566.348,1103.972,562.005,1103.972z"/>
	<g filter="url(#new-task-t)">
		<path id="new-task-u_3_" d="M484.652,1077.716h31.504c5.34,0,9.668,4.329,9.668,9.669v48.342c0,5.34-4.328,9.669-9.668,9.669
			h-31.504c-5.34,0-9.669-4.329-9.669-9.669v-48.342C474.983,1082.045,479.312,1077.716,484.652,1077.716z"/>
	</g>
	<g>
		<path id="new-task-u_1_" fill="#FFFFFF" fill-opacity="0.3" d="M484.652,1077.716h31.504c5.34,0,9.668,4.329,9.668,9.669v48.342
			c0,5.34-4.328,9.669-9.668,9.669h-31.504c-5.34,0-9.669-4.329-9.669-9.669v-48.342
			C474.983,1082.045,479.312,1077.716,484.652,1077.716z"/>
	</g>
	<polygon fill="#FFFFFF" points="511.131,1100.785 502.113,1125.333 497.912,1125.333 488.869,1100.785 493.189,1100.785 
		499.965,1120.967 500.06,1120.967 506.857,1100.785 	"/>
	<g filter="url(#new-task-v)">
		<path id="new-task-w_3_" d="M423.319,1077.716h31.504c5.34,0,9.668,4.329,9.668,9.669v48.342c0,5.34-4.328,9.669-9.668,9.669
			h-31.504c-5.341,0-9.669-4.329-9.669-9.669v-48.342C413.65,1082.045,417.979,1077.716,423.319,1077.716z"/>
	</g>
	<g>
		<path id="new-task-w_1_" fill="#FFFFFF" fill-opacity="0.3" d="M423.319,1077.716h31.504c5.34,0,9.668,4.329,9.668,9.669v48.342
			c0,5.34-4.328,9.669-9.668,9.669h-31.504c-5.341,0-9.669-4.329-9.669-9.669v-48.342
			C413.65,1082.045,417.979,1077.716,423.319,1077.716z"/>
	</g>
	<path fill="#FFFFFF" d="M450.024,1108.834h-4.014c-0.591-2.667-2.668-4.862-6.278-4.862c-4.249,0-7.129,3.518-7.129,9.088
		c0,5.712,2.928,9.089,7.176,9.089c3.353,0,5.548-1.771,6.256-4.723h4.036c-0.638,4.887-4.744,8.333-10.315,8.333
		c-6.798,0-11.33-4.792-11.33-12.699c0-7.743,4.51-12.699,11.283-12.699C445.846,1100.359,449.505,1104.42,450.024,1108.834z"/>
	<g filter="url(#new-task-x)">
		<path id="new-task-y_3_" d="M362.794,1077.716h31.504c5.34,0,9.669,4.329,9.669,9.669v48.342c0,5.34-4.329,9.669-9.669,9.669
			h-31.504c-5.34,0-9.668-4.329-9.668-9.669v-48.342C353.126,1082.045,357.454,1077.716,362.794,1077.716z"/>
	</g>
	<g>
		<path id="new-task-y_1_" fill="#FFFFFF" fill-opacity="0.3" d="M362.794,1077.716h31.504c5.34,0,9.669,4.329,9.669,9.669v48.342
			c0,5.34-4.329,9.669-9.669,9.669h-31.504c-5.34,0-9.668-4.329-9.668-9.669v-48.342
			C353.126,1082.045,357.454,1077.716,362.794,1077.716z"/>
	</g>
	<polygon fill="#FFFFFF" points="378.558,1115.985 378.465,1115.985 372.54,1125.333 367.984,1125.333 376.34,1113.061 
		368.125,1100.785 372.704,1100.785 378.605,1109.991 378.701,1109.991 384.531,1100.785 389.11,1100.785 380.824,1112.895 
		388.992,1125.333 384.438,1125.333 	"/>
	<g filter="url(#new-task-z)">
		<path id="new-task-A_3_" d="M302.27,1077.716h31.505c5.34,0,9.668,4.329,9.668,9.669v48.342c0,5.34-4.328,9.669-9.668,9.669
			H302.27c-5.339,0-9.668-4.329-9.668-9.669v-48.342C292.601,1082.045,296.93,1077.716,302.27,1077.716z"/>
	</g>
	<g>
		<path id="new-task-A_1_" fill="#FFFFFF" fill-opacity="0.3" d="M302.27,1077.716h31.505c5.34,0,9.668,4.329,9.668,9.669v48.342
			c0,5.34-4.328,9.669-9.668,9.669H302.27c-5.339,0-9.668-4.329-9.668-9.669v-48.342
			C292.601,1082.045,296.93,1077.716,302.27,1077.716z"/>
	</g>
	<polygon fill="#FFFFFF" points="308.459,1125.333 308.459,1122.407 322.057,1104.23 322.057,1104.161 308.484,1104.161 
		308.484,1100.785 326.705,1100.785 326.705,1103.782 313.204,1121.888 313.204,1121.959 326.777,1121.959 326.777,1125.333 	"/>
	<g filter="url(#new-task-B)">
		<path id="new-task-C_3_" d="M211.886,1077.716h48.451c5.34,0,9.668,4.329,9.668,9.669v48.342c0,5.34-4.329,9.669-9.668,9.669
			h-48.451c-5.34,0-9.668-4.329-9.668-9.669v-48.342C202.218,1082.045,206.546,1077.716,211.886,1077.716z"/>
	</g>
	<g>
		<path id="new-task-C_1_" fill="#FFFFFF" fill-opacity="0.13" d="M211.886,1077.716h48.451c5.34,0,9.668,4.329,9.668,9.669v48.342
			c0,5.34-4.329,9.669-9.668,9.669h-48.451c-5.34,0-9.668-4.329-9.668-9.669v-48.342
			C202.218,1082.045,206.546,1077.716,211.886,1077.716z"/>
	</g>
	<path fill="#FFFFFF" d="M237.411,1094.694l16.694,18.213c1.815,1.979,1.104,3.575-1.576,3.575h-6.749v8.703
		c0,1.612-1.296,2.897-2.895,2.897h-13.547c-1.596,0-2.895-1.297-2.895-2.897v-8.703h-6.749c-2.671,0-3.386-1.602-1.576-3.575
		l16.696-18.213C235.521,1093.923,236.693,1093.912,237.411,1094.694z M236.772,1098.816c-0.365-0.39-0.964-0.381-1.322,0
		l-13.842,14.766h7.735v10.652c0,0.523,0.45,0.948,0.974,0.948h11.589c0.538,0,0.973-0.439,0.973-0.948v-10.652h7.735
		L236.772,1098.816z"/>
	<g filter="url(#new-task-D)">
		<path id="new-task-E_3_" d="M726.752,990.699h31.504c5.34,0,9.668,4.329,9.668,9.668v48.343c0,5.34-4.328,9.669-9.668,9.669
			h-31.504c-5.34,0-9.669-4.329-9.669-9.669v-48.343C717.083,995.028,721.412,990.699,726.752,990.699z"/>
	</g>
	<g>
		<path id="new-task-E_1_" fill="#FFFFFF" fill-opacity="0.3" d="M726.752,990.699h31.504c5.34,0,9.668,4.329,9.668,9.668v48.343
			c0,5.34-4.328,9.669-9.668,9.669h-31.504c-5.34,0-9.669-4.329-9.669-9.669v-48.343
			C717.083,995.028,721.412,990.699,726.752,990.699z"/>
	</g>
	<polygon fill="#FFFFFF" points="740.854,1038.316 740.854,1004.256 744.959,1004.256 744.959,1038.316 	"/>
	<g filter="url(#new-task-F)">
		<path id="new-task-G_3_" d="M666.227,990.699h31.505c5.34,0,9.669,4.329,9.669,9.668v48.343c0,5.34-4.329,9.669-9.669,9.669
			h-31.505c-5.34,0-9.668-4.329-9.668-9.669v-48.343C656.559,995.028,660.887,990.699,666.227,990.699z"/>
	</g>
	<g>
		<path id="new-task-G_1_" fill="#FFFFFF" fill-opacity="0.3" d="M666.227,990.699h31.505c5.34,0,9.669,4.329,9.669,9.668v48.343
			c0,5.34-4.329,9.669-9.669,9.669h-31.505c-5.34,0-9.668-4.329-9.668-9.669v-48.343
			C656.559,995.028,660.887,990.699,666.227,990.699z"/>
	</g>
	<polygon fill="#FFFFFF" points="677.233,1024.674 688.091,1013.769 693.072,1013.769 682.428,1024.367 693.403,1038.316 
		688.635,1038.316 679.521,1026.893 677.233,1029.062 677.233,1038.316 673.126,1038.316 673.126,1004.256 677.233,1004.256 	"/>
	<g filter="url(#new-task-H)">
		<path id="new-task-I_3_" d="M605.702,990.699h31.504c5.34,0,9.668,4.329,9.668,9.668v48.343c0,5.34-4.328,9.669-9.668,9.669
			h-31.504c-5.34,0-9.669-4.329-9.669-9.669v-48.343C596.033,995.028,600.362,990.699,605.702,990.699z"/>
	</g>
	<g>
		<path id="new-task-I_1_" fill="#FFFFFF" fill-opacity="0.3" d="M605.702,990.699h31.504c5.34,0,9.668,4.329,9.668,9.668v48.343
			c0,5.34-4.328,9.669-9.668,9.669h-31.504c-5.34,0-9.669-4.329-9.669-9.669v-48.343
			C596.033,995.028,600.362,990.699,605.702,990.699z"/>
	</g>
	<path fill="#FFFFFF" d="M624.312,1013.769v25.753c0,4.98-2.359,7.246-7.601,7.246c-0.07,0-0.731,0-0.778-0.022v-3.423h0.638
		c2.667,0,3.636-1.016,3.636-3.753v-25.801H624.312z M622.26,1009.638c-1.393,0-2.549-1.156-2.549-2.55
		c0-1.416,1.156-2.549,2.549-2.549c1.417,0,2.573,1.133,2.573,2.549C624.833,1008.48,623.677,1009.638,622.26,1009.638z"/>
	<g filter="url(#new-task-J)">
		<path id="new-task-K_3_" d="M545.177,990.699h31.504c5.341,0,9.669,4.329,9.669,9.668v48.343c0,5.34-4.328,9.669-9.669,9.669
			h-31.504c-5.34,0-9.668-4.329-9.668-9.669v-48.343C535.509,995.028,539.837,990.699,545.177,990.699z"/>
	</g>
	<g>
		<path id="new-task-K_1_" fill="#FFFFFF" fill-opacity="0.3" d="M545.177,990.699h31.504c5.341,0,9.669,4.329,9.669,9.668v48.343
			c0,5.34-4.328,9.669-9.669,9.669h-31.504c-5.34,0-9.668-4.329-9.668-9.669v-48.343
			C535.509,995.028,539.837,990.699,545.177,990.699z"/>
	</g>
	<path fill="#FFFFFF" d="M551.182,1038.317v-34.062h4.107v13.431h0.095c1.369-2.737,4.061-4.343,7.789-4.343
		c5.382,0,8.64,3.636,8.64,9.111v15.862h-4.106v-15.107c0-3.895-1.959-6.23-5.807-6.23c-4.084,0-6.609,2.784-6.609,7.033v14.306
		H551.182L551.182,1038.317z"/>
	<g filter="url(#new-task-L)">
		<path id="new-task-M_3_" d="M484.652,990.699h31.504c5.34,0,9.668,4.329,9.668,9.668v48.343c0,5.34-4.328,9.669-9.668,9.669
			h-31.504c-5.34,0-9.669-4.329-9.669-9.669v-48.343C474.983,995.028,479.312,990.699,484.652,990.699z"/>
	</g>
	<g>
		<path id="new-task-M_1_" fill="#FFFFFF" fill-opacity="0.3" d="M484.652,990.699h31.504c5.34,0,9.668,4.329,9.668,9.668v48.343
			c0,5.34-4.328,9.669-9.668,9.669h-31.504c-5.34,0-9.669-4.329-9.669-9.669v-48.343
			C474.983,995.028,479.312,990.699,484.652,990.699z"/>
	</g>
	<path fill="#FFFFFF" d="M500.182,1034.895c4.272,0,7.129-3.541,7.129-8.945c0-5.405-2.855-8.993-7.129-8.993
		c-4.226,0-6.986,3.493-6.986,8.993S495.956,1034.895,500.182,1034.895z M500.323,1047.57c-5.405,0-9.679-3.045-10.362-7.224h4.225
		c0.804,2.242,3.234,3.729,6.304,3.729c4.249,0,6.821-2.455,6.821-6.114v-3.871h-0.095c-1.511,2.668-4.414,4.414-7.859,4.414
		c-6.257,0-10.362-4.934-10.362-12.558c0-7.695,4.105-12.604,10.456-12.604c3.471,0,6.351,1.699,7.979,4.556h0.071v-4.131h3.918
		v24.054C511.417,1043.676,507.098,1047.57,500.323,1047.57z"/>
	<g filter="url(#new-task-N)">
		<path id="new-task-O_3_" d="M423.319,990.699h31.504c5.34,0,9.668,4.329,9.668,9.668v48.343c0,5.34-4.328,9.669-9.668,9.669
			h-31.504c-5.341,0-9.669-4.329-9.669-9.669v-48.343C413.65,995.028,417.979,990.699,423.319,990.699z"/>
	</g>
	<g>
		<path id="new-task-O_1_" fill="#FFFFFF" fill-opacity="0.3" d="M423.319,990.699h31.504c5.34,0,9.668,4.329,9.668,9.668v48.343
			c0,5.34-4.328,9.669-9.668,9.669h-31.504c-5.341,0-9.669-4.329-9.669-9.669v-48.343
			C413.65,995.028,417.979,990.699,423.319,990.699z"/>
	</g>
	<path fill="#FFFFFF" d="M435.316,1038.317v-21.175h-3.424v-3.375h3.424v-2.737c0-4.722,2.194-6.964,6.728-6.964
		c0.92,0,1.912,0.095,2.502,0.188v3.328c-0.496-0.071-1.181-0.142-1.865-0.142c-2.219,0-3.279,1.18-3.279,3.61v2.716h5.026v3.375
		h-5.004v21.174L435.316,1038.317L435.316,1038.317z"/>
	<g filter="url(#new-task-P)">
		<path id="new-task-Q_3_" d="M362.794,990.699h31.504c5.34,0,9.669,4.329,9.669,9.668v48.343c0,5.34-4.329,9.669-9.669,9.669
			h-31.504c-5.34,0-9.668-4.329-9.668-9.669v-48.343C353.126,995.028,357.454,990.699,362.794,990.699z"/>
	</g>
	<g>
		<path id="new-task-Q_1_" fill="#FFFFFF" fill-opacity="0.3" d="M362.794,990.699h31.504c5.34,0,9.669,4.329,9.669,9.668v48.343
			c0,5.34-4.329,9.669-9.669,9.669h-31.504c-5.34,0-9.668-4.329-9.668-9.669v-48.343
			C353.126,995.028,357.454,990.699,362.794,990.699z"/>
	</g>
	<path fill="#FFFFFF" d="M377.131,1038.742c-6.256,0-10.505-5.004-10.505-12.699s4.226-12.699,10.41-12.699
		c3.517,0,6.35,1.724,7.812,4.414h0.095v-13.502h4.106v34.062h-3.918v-4.154h-0.071
		C383.48,1036.995,380.671,1038.742,377.131,1038.742z M377.909,1016.955c-4.343,0-7.081,3.541-7.081,9.088
		c0,5.57,2.738,9.088,7.081,9.088c4.226,0,7.058-3.588,7.058-9.088C384.967,1020.566,382.135,1016.955,377.909,1016.955z"/>
	<g filter="url(#new-task-R)">
		<path id="new-task-S_3_" d="M302.27,990.699h31.505c5.34,0,9.668,4.329,9.668,9.668v48.343c0,5.34-4.328,9.669-9.668,9.669H302.27
			c-5.339,0-9.668-4.329-9.668-9.669v-48.343C292.601,995.028,296.93,990.699,302.27,990.699z"/>
	</g>
	<g>
		<path id="new-task-S_1_" fill="#FFFFFF" fill-opacity="0.3" d="M302.27,990.699h31.505c5.34,0,9.668,4.329,9.668,9.668v48.343
			c0,5.34-4.328,9.669-9.668,9.669H302.27c-5.339,0-9.668-4.329-9.668-9.669v-48.343C292.601,995.028,296.93,990.699,302.27,990.699
			z"/>
	</g>
	<path fill="#FFFFFF" d="M308.613,1020.543c0-4.202,3.753-7.199,9.158-7.199c5.074,0,8.805,3.021,8.993,7.177h-3.919
		c-0.283-2.361-2.194-3.824-5.217-3.824c-2.997,0-4.98,1.487-4.98,3.635c0,1.7,1.3,2.833,4.085,3.541l3.8,0.921
		c4.957,1.251,6.751,3.045,6.751,6.656c0,4.271-4.036,7.294-9.772,7.294c-5.382,0-9.135-2.927-9.56-7.271h4.106
		c0.448,2.551,2.385,3.919,5.713,3.919c3.327,0,5.382-1.417,5.382-3.636c0-1.747-1.016-2.689-3.776-3.423l-4.319-1.109
		C310.737,1026.113,308.613,1023.895,308.613,1020.543z"/>
	<g filter="url(#new-task-T)">
		<path id="new-task-U_3_" d="M241.745,990.699h31.504c5.339,0,9.668,4.329,9.668,9.668v48.343c0,5.34-4.329,9.669-9.668,9.669
			h-31.504c-5.34,0-9.668-4.329-9.668-9.669v-48.343C232.076,995.028,236.405,990.699,241.745,990.699z"/>
	</g>
	<g>
		<path id="new-task-U_1_" fill="#FFFFFF" fill-opacity="0.3" d="M241.745,990.699h31.504c5.339,0,9.668,4.329,9.668,9.668v48.343
			c0,5.34-4.329,9.669-9.668,9.669h-31.504c-5.34,0-9.668-4.329-9.668-9.669v-48.343
			C232.076,995.028,236.405,990.699,241.745,990.699z"/>
	</g>
	<path fill="#FFFFFF" d="M256.531,1035.248c3.872,0,6.846-2.714,6.846-6.255v-2.006l-6.562,0.4
		c-3.305,0.212-5.193,1.677-5.193,3.988C251.622,1033.714,253.581,1035.248,256.531,1035.248z M255.611,1038.742
		c-4.886,0-8.167-2.951-8.167-7.365c0-4.201,3.234-6.845,8.899-7.176l7.034-0.401v-2.053c0-2.998-1.983-4.792-5.382-4.792
		c-3.163,0-5.146,1.487-5.665,3.895h-3.966c0.283-4.249,3.918-7.506,9.725-7.506c5.76,0,9.395,3.115,9.395,8.002v16.973h-3.895
		v-4.227h-0.094C262.031,1036.9,258.916,1038.742,255.611,1038.742z"/>
	<g filter="url(#new-task-V)">
		<path id="new-task-W_3_" d="M756.61,903.683h31.504c5.339,0,9.668,4.329,9.668,9.669v48.343c0,5.34-4.329,9.669-9.668,9.669
			H756.61c-5.341,0-9.669-4.329-9.669-9.669v-48.343C746.941,908.012,751.271,903.683,756.61,903.683z"/>
	</g>
	<g>
		<path id="new-task-W_1_" fill="#FFFFFF" fill-opacity="0.3" d="M756.61,903.683h31.504c5.339,0,9.668,4.329,9.668,9.669v48.343
			c0,5.34-4.329,9.669-9.668,9.669H756.61c-5.341,0-9.669-4.329-9.669-9.669v-48.343
			C746.941,908.012,751.271,903.683,756.61,903.683z"/>
	</g>
	<path fill="#FFFFFF" d="M774.075,926.327c6.256,0,10.504,5.004,10.504,12.699c0,7.694-4.225,12.698-10.409,12.698
		c-3.518,0-6.35-1.724-7.812-4.414h-0.095v12.181h-4.106v-32.739h3.895v4.154h0.096
		C767.655,928.145,770.511,926.327,774.075,926.327z M773.271,948.114c4.367,0,7.105-3.519,7.105-9.088
		c0-5.548-2.738-9.089-7.105-9.089c-4.2,0-7.033,3.636-7.033,9.089C766.238,944.503,769.071,948.114,773.271,948.114z"/>
	<g filter="url(#new-task-X)">
		<path id="new-task-Y_3_" d="M696.085,903.683h31.504c5.34,0,9.669,4.329,9.669,9.669v48.343c0,5.34-4.329,9.669-9.669,9.669
			h-31.504c-5.34,0-9.668-4.329-9.668-9.669v-48.343C686.417,908.012,690.745,903.683,696.085,903.683z"/>
	</g>
	<g>
		<path id="new-task-Y_1_" fill="#FFFFFF" fill-opacity="0.3" d="M696.085,903.683h31.504c5.34,0,9.669,4.329,9.669,9.669v48.343
			c0,5.34-4.329,9.669-9.669,9.669h-31.504c-5.34,0-9.668-4.329-9.668-9.669v-48.343
			C686.417,908.012,690.745,903.683,696.085,903.683z"/>
	</g>
	<path fill="#FFFFFF" d="M711.849,951.726c-6.798,0-11.377-4.886-11.377-12.698c0-7.837,4.579-12.699,11.377-12.699
		c6.774,0,11.354,4.862,11.354,12.699C723.203,946.84,718.623,951.726,711.849,951.726z M711.849,948.114
		c4.345,0,7.177-3.306,7.177-9.088c0-5.783-2.832-9.089-7.177-9.089c-4.343,0-7.198,3.306-7.198,9.089
		C704.65,944.809,707.506,948.114,711.849,948.114z"/>
	<g filter="url(#new-task-Z)">
		<path id="new-task-aa_3_" d="M635.561,903.683h31.505c5.34,0,9.668,4.329,9.668,9.669v48.343c0,5.34-4.328,9.669-9.668,9.669
			h-31.505c-5.34,0-9.669-4.329-9.669-9.669v-48.343C625.892,908.012,630.221,903.683,635.561,903.683z"/>
	</g>
	<g>
		<path id="new-task-aa_1_" fill="#FFFFFF" fill-opacity="0.3" d="M635.561,903.683h31.505c5.34,0,9.668,4.329,9.668,9.669v48.343
			c0,5.34-4.328,9.669-9.668,9.669h-31.505c-5.34,0-9.669-4.329-9.669-9.669v-48.343
			C625.892,908.012,630.221,903.683,635.561,903.683z"/>
	</g>
	<path fill="#FFFFFF" d="M648.855,951.301v-24.549h4.105v24.549H648.855z M650.908,922.621c-1.394,0-2.549-1.157-2.549-2.55
		c0-1.416,1.155-2.55,2.549-2.55c1.417,0,2.573,1.134,2.573,2.55C653.481,921.464,652.325,922.621,650.908,922.621z"/>
	<g filter="url(#new-task-ab)">
		<path id="new-task-ac_3_" d="M575.035,903.683h31.504c5.34,0,9.669,4.329,9.669,9.669v48.343c0,5.34-4.329,9.669-9.669,9.669
			h-31.504c-5.34,0-9.668-4.329-9.668-9.669v-48.343C565.367,908.012,569.695,903.683,575.035,903.683z"/>
	</g>
	<g>
		<path id="new-task-ac_1_" fill="#FFFFFF" fill-opacity="0.3" d="M575.035,903.683h31.504c5.34,0,9.669,4.329,9.669,9.669v48.343
			c0,5.34-4.329,9.669-9.669,9.669h-31.504c-5.34,0-9.668-4.329-9.668-9.669v-48.343
			C565.367,908.012,569.695,903.683,575.035,903.683z"/>
	</g>
	<path fill="#FFFFFF" d="M600.475,926.752v24.549h-3.895v-3.988h-0.095c-1.464,2.832-4.014,4.413-7.789,4.413
		c-5.358,0-8.498-3.47-8.498-9.041v-15.933h4.106v15.201c0,3.989,1.864,6.138,5.665,6.138c3.989,0,6.396-2.737,6.396-6.917v-14.422
		H600.475z"/>
	<g filter="url(#new-task-ad)">
		<path id="new-task-ae_3_" d="M514.511,903.683h31.504c5.341,0,9.668,4.329,9.668,9.669v48.343c0,5.34-4.327,9.669-9.668,9.669
			h-31.504c-5.34,0-9.669-4.329-9.669-9.669v-48.343C504.842,908.012,509.171,903.683,514.511,903.683z"/>
	</g>
	<g>
		<path id="new-task-ae_1_" fill="#FFFFFF" fill-opacity="0.3" d="M514.511,903.683h31.504c5.341,0,9.668,4.329,9.668,9.669v48.343
			c0,5.34-4.327,9.669-9.668,9.669h-31.504c-5.34,0-9.669-4.329-9.669-9.669v-48.343
			C504.842,908.012,509.171,903.683,514.511,903.683z"/>
	</g>
	<path fill="#FFFFFF" d="M522.812,960.482c-0.495,0-1.321-0.048-1.771-0.143v-3.446c0.448,0.096,1.085,0.118,1.604,0.118
		c2.289,0,3.563-1.108,4.509-3.965l0.565-1.724l-9.063-24.572h4.391l6.799,20.44h0.07l6.798-20.44h4.32l-9.654,26.271
		C529.28,958.76,527.251,960.482,522.812,960.482z"/>
	<g filter="url(#new-task-af)">
		<path id="new-task-ag_3_" d="M453.985,903.683h31.504c5.34,0,9.669,4.329,9.669,9.669v48.343c0,5.34-4.329,9.669-9.669,9.669
			h-31.504c-5.341,0-9.668-4.329-9.668-9.669v-48.343C444.317,908.012,448.646,903.683,453.985,903.683z"/>
	</g>
	<g>
		<path id="new-task-ag_1_" fill="#FFFFFF" fill-opacity="0.3" d="M453.985,903.683h31.504c5.34,0,9.669,4.329,9.669,9.669v48.343
			c0,5.34-4.329,9.669-9.669,9.669h-31.504c-5.341,0-9.668-4.329-9.668-9.669v-48.343
			C444.317,908.012,448.646,903.683,453.985,903.683z"/>
	</g>
	<path fill="#FFFFFF" d="M466.041,920.827h4.107v5.925h4.769v3.375h-4.769v14.588c0,2.242,0.943,3.258,3.045,3.258
		c0.473,0,1.416-0.07,1.698-0.117v3.445c-0.495,0.118-1.628,0.188-2.596,0.188c-4.509,0-6.256-1.841-6.256-6.562v-14.801h-3.658
		v-3.375h3.658L466.041,920.827L466.041,920.827z"/>
	<g filter="url(#new-task-ah)">
		<path id="new-task-ai_3_" d="M393.461,903.683h31.504c5.34,0,9.668,4.329,9.668,9.669v48.343c0,5.34-4.328,9.669-9.668,9.669
			h-31.504c-5.34,0-9.669-4.329-9.669-9.669v-48.343C383.792,908.012,388.121,903.683,393.461,903.683z"/>
	</g>
	<g>
		<path id="new-task-ai_1_" fill="#FFFFFF" fill-opacity="0.3" d="M393.461,903.683h31.504c5.34,0,9.668,4.329,9.668,9.669v48.343
			c0,5.34-4.328,9.669-9.668,9.669h-31.504c-5.34,0-9.669-4.329-9.669-9.669v-48.343
			C383.792,908.012,388.121,903.683,393.461,903.683z"/>
	</g>
	<path fill="#FFFFFF" d="M404.836,951.301v-24.549h3.871v4.013h0.095c0.804-2.715,3.068-4.438,5.948-4.438
		c0.708,0,1.322,0.118,1.652,0.165v3.989c-0.33-0.118-1.203-0.236-2.195-0.236c-3.188,0-5.264,2.29-5.264,5.76v15.296H404.836z"/>
	<g filter="url(#new-task-aj)">
		<path id="new-task-ak_3_" d="M332.936,903.683h31.505c5.34,0,9.669,4.329,9.669,9.669v48.343c0,5.34-4.329,9.669-9.669,9.669
			h-31.505c-5.34,0-9.668-4.329-9.668-9.669v-48.343C323.268,908.012,327.596,903.683,332.936,903.683z"/>
	</g>
	<g>
		<path id="new-task-ak_1_" fill="#FFFFFF" fill-opacity="0.3" d="M332.936,903.683h31.505c5.34,0,9.669,4.329,9.669,9.669v48.343
			c0,5.34-4.329,9.669-9.669,9.669h-31.505c-5.34,0-9.668-4.329-9.668-9.669v-48.343
			C323.268,908.012,327.596,903.683,332.936,903.683z"/>
	</g>
	<path fill="#FFFFFF" d="M349.221,929.891c-3.847,0-6.538,2.951-6.798,7.035h13.337
		C355.665,932.818,353.093,929.891,349.221,929.891z M355.665,944.267h4.036c-0.708,4.297-4.862,7.459-10.221,7.459
		c-7.034,0-11.308-4.886-11.308-12.604c0-7.625,4.344-12.794,11.118-12.794c6.633,0,10.717,4.814,10.717,12.251v1.558h-17.608v0.236
		c0,4.697,2.762,7.789,7.176,7.789C352.691,948.161,354.98,946.58,355.665,944.267z"/>
	<g filter="url(#new-task-al)">
		<path id="new-task-am_3_" d="M272.411,903.683h31.504c5.34,0,9.668,4.329,9.668,9.669v48.343c0,5.34-4.328,9.669-9.668,9.669
			h-31.504c-5.34,0-9.668-4.329-9.668-9.669v-48.343C262.743,908.012,267.071,903.683,272.411,903.683z"/>
	</g>
	<g>
		<path id="new-task-am_1_" fill="#FFFFFF" fill-opacity="0.3" d="M272.411,903.683h31.504c5.34,0,9.668,4.329,9.668,9.669v48.343
			c0,5.34-4.328,9.669-9.668,9.669h-31.504c-5.34,0-9.668-4.329-9.668-9.669v-48.343
			C262.743,908.012,267.071,903.683,272.411,903.683z"/>
	</g>
	<polygon fill="#FFFFFF" points="304.365,926.752 297.521,951.3 293.341,951.3 287.795,932.3 287.701,932.3 282.176,951.3 
		278,951.3 271.129,926.752 275.213,926.752 280.123,946.721 280.217,946.721 285.765,926.752 289.731,926.752 295.3,946.721 
		295.395,946.721 300.305,926.752 	"/>
	<g filter="url(#new-task-an)">
		<path id="new-task-ao_3_" d="M211.886,903.683h31.504c5.34,0,9.668,4.329,9.668,9.669v48.343c0,5.34-4.329,9.669-9.668,9.669
			h-31.504c-5.34,0-9.668-4.329-9.668-9.669v-48.343C202.218,908.012,206.546,903.683,211.886,903.683z"/>
	</g>
	<g>
		<path id="new-task-ao_1_" fill="#FFFFFF" fill-opacity="0.3" d="M211.886,903.683h31.504c5.34,0,9.668,4.329,9.668,9.669v48.343
			c0,5.34-4.329,9.669-9.668,9.669h-31.504c-5.34,0-9.668-4.329-9.668-9.669v-48.343
			C202.218,908.012,206.546,903.683,211.886,903.683z"/>
	</g>
	<path fill="#FFFFFF" d="M225.877,926.327c3.564,0,6.373,1.746,7.955,4.579h0.095v-4.154h3.918v32.739h-4.107v-12.298h-0.094
		c-1.535,2.809-4.391,4.531-7.861,4.531c-6.208,0-10.362-5.004-10.362-12.698C215.42,931.308,219.575,926.327,225.877,926.327z
		 M226.609,948.114c4.202,0,7.129-3.611,7.129-9.088c0-5.478-2.927-9.089-7.129-9.089c-4.296,0-6.987,3.471-6.987,9.089
		C219.622,944.62,222.313,948.114,226.609,948.114z"/>
	<g transform="translate(24 404)">
		
			<linearGradient id="SVGID_1_" gradientUnits="userSpaceOnUse" x1="-47.1719" y1="-5.2563" x2="-47.1719" y2="-4.2563" gradientTransform="matrix(605.2486 0 0 106.3536 29026.3418 936.2031)">
			<stop  offset="0" style="stop-color:#0A0A0A;stop-opacity:0"/>
			<stop  offset="1" style="stop-color:#0A0A0A"/>
		</linearGradient>
		
			<rect x="173.375" y="377.216" opacity="0.9" fill="url(#SVGID_1_)" enable-background="new    " width="605.249" height="106.354"/>
		
			<linearGradient id="SVGID_2_" gradientUnits="userSpaceOnUse" x1="-47.1719" y1="-5.2563" x2="-47.1719" y2="-4.2563" gradientTransform="matrix(605.2486 0 0 106.3536 29026.3418 936.2031)">
			<stop  offset="0" style="stop-color:#101010;stop-opacity:0"/>
			<stop  offset="1" style="stop-color:#101010"/>
		</linearGradient>
		<rect x="173.375" y="377.216" fill="url(#SVGID_2_)" width="605.249" height="106.354"/>
	</g>
	<path opacity="0.3" fill="#D0021B" enable-background="new    " d="M462.583,834.868h4.045c0.257,2.069,2.312,3.403,5.249,3.403
		c2.729,0,4.703-1.396,4.703-3.34c0-1.67-1.27-2.647-4.237-3.339l-3.002-0.689c-4.205-0.947-6.18-3.033-6.18-6.484
		c0-4.206,3.435-6.999,8.619-6.999c4.864,0,8.379,2.793,8.57,6.774h-3.964c-0.289-2.039-2.087-3.323-4.623-3.323
		c-2.665,0-4.431,1.284-4.431,3.259c0,1.557,1.172,2.472,4.045,3.13l2.665,0.61c4.703,1.06,6.677,3.018,6.677,6.549
		c0,4.51-3.481,7.319-9.101,7.319C466.307,841.738,462.792,839.073,462.583,834.868z M485.701,819.299h3.964v4.414h3.757v3.178
		h-3.757v8.619c0,1.734,0.739,2.504,2.408,2.504c0.562,0,0.866-0.03,1.349-0.08v3.114c-0.578,0.112-1.316,0.192-2.087,0.192
		c-4.029,0-5.634-1.364-5.634-4.768v-9.583h-2.777v-3.178h2.777V819.299L485.701,819.299z M502.879,838.319
		c2.408,0,4.206-1.559,4.206-3.597v-1.396l-3.965,0.257c-2.231,0.145-3.274,0.947-3.274,2.376
		C499.846,837.438,501.113,838.319,502.879,838.319z M501.708,841.449c-3.388,0-5.812-2.056-5.812-5.266
		c0-3.179,2.393-5.008,6.661-5.265l4.526-0.273v-1.477c0-1.718-1.156-2.681-3.307-2.681c-1.83,0-3.082,0.643-3.451,1.83h-3.756
		c0.32-3.099,3.227-5.072,7.398-5.072c4.512,0,7.047,2.199,7.047,5.923v11.99h-3.837v-2.407h-0.271
		C505.929,840.454,504.003,841.449,501.708,841.449z M515.274,841.16V823.6h3.837v2.729h0.271c0.481-1.733,2.376-3.019,4.639-3.019
		c0.578,0,1.284,0.063,1.653,0.178v3.69c-0.305-0.111-1.364-0.225-2.038-0.225c-2.585,0-4.383,1.604-4.383,4.061v10.146H515.274z
		 M530.479,819.299h3.966v4.414h3.756v3.178h-3.756v8.619c0,1.734,0.737,2.504,2.407,2.504c0.562,0,0.866-0.03,1.349-0.08v3.114
		c-0.577,0.112-1.316,0.192-2.086,0.192c-4.029,0-5.635-1.364-5.635-4.768v-9.583h-2.776v-3.178h2.776L530.479,819.299
		L530.479,819.299z"/>
	<path opacity="0.25" fill="#EEE3C1" enable-background="new    " d="M251.621,273.581l-7.308,28.076h-13.597l-12.645-49.049h14.888
		l5.643,31h0.272l7.308-31h11.149l7.308,31h0.272l5.643-31h14.888l-12.645,49.049H259.2l-7.308-28.076H251.621z M289.589,301.657
		v-49.049h13.597v18.899h0.271c1.87-5.269,5.982-8.124,11.693-8.124c8.43,0,12.983,5.234,12.983,14.242v24.031h-13.937v-20.938
		c0-3.772-1.835-6.084-5.336-6.084c-3.469,0-5.337,2.549-5.337,6.05v20.972L289.589,301.657L289.589,301.657z M349.685,292.888
		c3.095,0,5.948-1.733,5.948-4.487v-2.447l-5.914,0.408c-2.65,0.204-4.146,1.462-4.146,3.297
		C345.572,291.698,347.237,292.888,349.685,292.888z M344.484,302.201c-6.832,0-12.646-4.69-12.646-11.455
		c0-7.206,5.54-11.115,15.567-11.727l8.226-0.51v-1.835c0-2.516-1.903-3.875-4.521-3.875c-2.854,0-4.69,1.563-4.896,3.467h-12.439
		c0.34-8.021,7.138-13.086,18.083-13.086c10.4,0,17.369,5.201,17.369,12.814v25.663h-13.598v-5.03h-0.271
		C353.39,300.298,348.835,302.201,344.484,302.201z M377.829,255.906h13.937v8.226h6.595v10.095h-6.595v13.869
		c0,2.345,1.359,3.569,4.216,3.569c1.054,0,1.562-0.034,2.379-0.17v9.653c-1.325,0.272-3.094,0.51-5.744,0.51
		c-10.605,0-14.786-3.059-14.786-10.469v-16.962h-4.962v-10.095h4.962L377.829,255.906L377.829,255.906z M432.656,292.888
		c3.094,0,5.949-1.733,5.949-4.487v-2.447l-5.915,0.408c-2.651,0.204-4.146,1.462-4.146,3.297
		C428.544,291.698,430.209,292.888,432.656,292.888z M427.456,302.201c-6.832,0-12.646-4.69-12.646-11.455
		c0-7.206,5.54-11.115,15.567-11.727l8.228-0.51v-1.835c0-2.516-1.904-3.875-4.521-3.875c-2.855,0-4.69,1.563-4.895,3.467h-12.44
		c0.34-8.021,7.138-13.086,18.083-13.086c10.401,0,17.369,5.201,17.369,12.814v25.663h-13.596v-5.03h-0.272
		C436.361,300.298,431.807,302.201,427.456,302.201z M457.436,301.657v-37.525h13.598v7.376h0.271
		c1.428-5.337,4.316-7.92,8.771-7.92c1.257,0,2.345,0.204,3.263,0.544v11.692c-1.188-0.51-2.617-0.782-4.045-0.782
		c-5.234,0-7.92,2.686-7.92,7.92v18.695H457.436z M504.479,272.765c-3.16,0-5.574,2.312-5.847,5.541h11.693
		C510.088,274.94,507.742,272.765,504.479,272.765z M510.733,289.489h12.406c-1.155,8.09-8.227,13.121-18.524,13.121
		c-12.305,0-19.613-7.308-19.613-19.511c0-12.271,7.377-19.919,19.172-19.919c11.624,0,19.137,7.41,19.137,18.899v3.773h-24.882
		v0.884c0,3.671,2.651,6.322,6.392,6.322C507.641,293.058,509.918,291.732,510.733,289.489z M547.206,315.424h-4.963v-10.367h2.686
		c3.942,0,5.71-0.714,5.71-2.379c0-0.306-0.067-0.714-0.17-1.02l-12.305-37.525h15.466l5.711,27.532h0.271l5.677-27.532h14.718
		l-11.183,36.642C565.629,311.209,559.408,315.424,547.206,315.424z M600.333,302.609c-12.236,0-19.714-7.07-19.714-19.749
		c0-12.338,7.682-19.681,19.714-19.681c12.102,0,19.749,7.274,19.749,19.681C620.082,295.573,612.604,302.609,600.333,302.609z
		 M600.333,292.65c3.468,0,5.608-3.467,5.608-9.755c0-6.118-2.176-9.755-5.608-9.755c-3.398,0-5.574,3.637-5.574,9.755
		C594.759,289.183,596.832,292.65,600.333,292.65z M662.639,264.132v37.525h-13.597v-7.376h-0.271
		c-1.496,5.099-4.997,8.124-10.605,8.124c-8.056,0-13.97-5.269-13.97-14.208v-24.065h13.936v20.938c0,3.977,2.143,6.084,5.405,6.084
		c3.127,0,5.166-2.413,5.166-6.05v-20.972H662.639z M238.603,368.468c3.773,0,5.982-2.787,5.982-8.192c0-5.336-2.243-8.6-5.982-8.6
		s-5.949,3.263-5.949,8.566C232.654,365.647,234.83,368.468,238.603,368.468z M238.059,393.146
		c-11.387,0-18.253-4.929-18.831-11.896h13.393c0.408,1.801,2.617,3.093,5.744,3.093c4.147,0,6.152-2.141,6.152-5.302v-7.206h-0.272
		c-1.224,3.943-5.608,6.696-11.217,6.696c-8.77,0-14.65-6.628-14.65-18.389c0-12.067,5.506-19.205,14.854-19.205
		c5.472,0,9.551,3.093,11.013,7.308h0.272v-6.764h13.937v37.22C258.454,387.639,250.126,393.146,238.059,393.146z M282.451,379.957
		c-12.237,0-19.715-7.07-19.715-19.749c0-12.338,7.682-19.681,19.715-19.681c12.101,0,19.748,7.274,19.748,19.681
		C302.199,372.921,294.722,379.957,282.451,379.957z M282.451,369.998c3.467,0,5.608-3.467,5.608-9.755
		c0-6.119-2.175-9.755-5.608-9.755c-3.399,0-5.575,3.637-5.575,9.755C276.876,366.531,278.95,369.998,282.451,369.998z
		 M306.482,379.005v-37.526h13.597v7.376h0.271c1.903-5.269,5.812-8.124,11.523-8.124c8.43,0,13.052,5.234,13.052,14.242v24.031
		H330.99v-20.938c0-3.773-1.769-6.084-5.27-6.084c-3.298,0-5.303,2.549-5.303,6.05v20.972L306.482,379.005L306.482,379.005z
		 M349.991,379.005v-37.526h13.596v7.376h0.272c1.902-5.269,5.812-8.124,11.521-8.124c8.43,0,13.053,5.234,13.053,14.242v24.031
		h-13.937v-20.938c0-3.773-1.769-6.084-5.269-6.084c-3.298,0-5.304,2.549-5.304,6.05v20.972L349.991,379.005L349.991,379.005z
		 M409.951,370.236c3.093,0,5.948-1.733,5.948-4.487v-2.447l-5.915,0.408c-2.651,0.204-4.146,1.462-4.146,3.297
		C405.838,369.046,407.503,370.236,409.951,370.236z M404.75,379.549c-6.832,0-12.645-4.691-12.645-11.455
		c0-7.206,5.541-11.115,15.567-11.727l8.227-0.51v-1.835c0-2.516-1.903-3.875-4.521-3.875c-2.854,0-4.69,1.563-4.895,3.467h-12.44
		c0.34-8.021,7.138-13.086,18.083-13.086c10.401,0,17.369,5.201,17.369,12.813v25.663h-13.596v-5.031h-0.272
		C413.655,377.646,409.101,379.549,404.75,379.549z M461.65,379.549c-9.245,0-14.615-7.172-14.615-19.409
		c0-12.067,5.506-19.205,14.854-19.205c5.474,0,9.553,3.093,11.014,7.308h0.271v-18.287h13.938v49.049h-13.938v-6.492h-0.271
		C471.645,376.456,467.293,379.549,461.65,379.549z M467.26,351.677c-3.738,0-5.949,3.263-5.949,8.566
		c0,5.371,2.177,8.565,5.949,8.565s5.981-3.127,5.981-8.532C473.241,354.906,470.998,351.677,467.26,351.677z M511.107,379.957
		c-12.236,0-19.716-7.07-19.716-19.749c0-12.338,7.683-19.681,19.716-19.681c12.101,0,19.749,7.274,19.749,19.681
		C530.856,372.921,523.378,379.957,511.107,379.957z M511.107,369.998c3.467,0,5.607-3.467,5.607-9.755
		c0-6.119-2.175-9.755-5.607-9.755c-3.399,0-5.574,3.637-5.574,9.755C505.533,366.531,507.605,369.998,511.107,369.998z
		 M534.255,344.675c0-9.381,6.936-15.194,18.22-15.194c10.877,0,17.879,5.472,17.879,14.004c0,4.928-2.209,8.293-7.409,11.285
		c-4.759,2.719-6.05,4.147-6.05,7.206v1.428h-12.067l-0.103-0.816c-0.85-6.22,0.715-9.279,5.438-11.999
		c4.826-2.788,5.948-4.011,5.948-6.798c0-2.277-1.938-3.841-4.589-3.841c-2.687,0-4.59,1.938-4.623,4.725H534.255z M551.114,380.365
		c-3.978,0-7.206-2.991-7.206-6.798c0-3.773,3.229-6.764,7.206-6.764s7.239,2.991,7.239,6.764
		C558.354,377.374,555.092,380.365,551.114,380.365z"/>
	<rect x="216.713" y="237.845" fill="#EEE3C1" width="1.934" height="73.481"/>
	<path fill="#656153" d="M787.154,187.566v-10.629c0-1.6-1.304-2.904-2.904-2.904h-32.864c-1.604,0-2.905,1.301-2.905,2.904v10.629
		c0,1.601,1.297,2.904,2.884,2.904h32.907C785.859,190.47,787.154,189.17,787.154,187.566z M787.076,190.47v1.028
		c-0.79,0.57-1.759,0.906-2.805,0.906h1.401h-1.401v-1.934H787.076z M785.674,192.403h1.402H785.674z M787.076,190.47h-2.805v1.934
		h-32.908c-2.66,0-4.816-2.173-4.816-4.837v-10.629c0-2.672,2.168-4.837,4.839-4.837h32.864c2.672,0,4.838,2.173,4.838,4.837v10.629
		c0,1.62-0.794,3.054-2.012,3.932V190.47z"/>
	<path fill="#656153" d="M791.021,178.867c1.669,0.43,2.9,1.944,2.9,3.746c0,1.802-1.231,3.316-2.9,3.746V178.867z"/>
	<path fill="#EEE3C1" d="M752.348,175.967h30.939c1.068,0,1.934,0.866,1.934,1.934v8.702c0,1.068-0.864,1.934-1.934,1.934h-30.939
		c-1.066,0-1.934-0.866-1.934-1.934V177.9C750.414,176.833,751.28,175.967,752.348,175.967z"/>
	<path fill="#EEE3C1" d="M482.354,190.877c-3.921,0-6.243-3.172-6.243-8.6c0-5.405,2.355-8.566,6.243-8.566
		c3.875,0,6.23,3.161,6.23,8.588C488.584,187.705,486.262,190.877,482.354,190.877z M482.354,188.453
		c2.072,0,3.273-2.153,3.273-6.175c0-4-1.224-6.13-3.273-6.13c-2.051,0-3.286,2.142-3.286,6.13
		C479.066,186.3,480.279,188.453,482.354,188.453z M493.875,188.736c-1.064,0-1.812-0.771-1.812-1.791
		c0-1.031,0.748-1.79,1.812-1.79c1.077,0,1.812,0.759,1.812,1.79C495.688,187.966,494.952,188.736,493.875,188.736z
		 M493.875,180.238c-1.064,0-1.812-0.759-1.812-1.779c0-1.031,0.748-1.79,1.812-1.79c1.077,0,1.812,0.759,1.812,1.79
		C495.688,179.479,494.952,180.238,493.875,180.238z M505.41,190.877c-3.921,0-6.243-3.172-6.243-8.6
		c0-5.405,2.356-8.566,6.243-8.566c3.874,0,6.23,3.161,6.23,8.588C511.642,187.705,509.318,190.877,505.41,190.877z M505.41,188.453
		c2.073,0,3.272-2.153,3.272-6.175c0-4-1.223-6.13-3.272-6.13s-3.286,2.142-3.286,6.13
		C502.124,186.3,503.336,188.453,505.41,188.453z M521.079,190.866c-2.401,0-4.294-1.133-5.382-3.229
		c-0.76-1.337-1.155-3.082-1.155-5.167c0-5.496,2.458-8.759,6.628-8.759c2.98,0,5.269,1.768,5.756,4.453h-2.923
		c-0.363-1.235-1.45-2.005-2.854-2.005c-2.392,0-3.808,2.232-3.808,5.971h0.192c0.771-1.552,2.312-2.447,4.236-2.447
		c3.104,0,5.383,2.3,5.383,5.438C527.152,188.487,524.637,190.866,521.079,190.866z M521.045,188.43
		c1.836,0,3.241-1.394,3.241-3.218c0-1.87-1.349-3.207-3.218-3.207c-1.87,0-3.24,1.337-3.24,3.161
		C517.828,187.025,519.222,188.43,521.045,188.43z M263.401,186.483l-4.103,3.986l-4.182-4.051c1.001-1.109,2.473-1.811,4.114-1.811
		C260.902,184.608,262.399,185.336,263.401,186.483z M267.614,182.39l-2.105,2.045c-1.545-1.665-3.786-2.712-6.279-2.712
		c-2.463,0-4.68,1.022-6.223,2.653l-2.108-2.042c2.083-2.152,5.045-3.497,8.331-3.497
		C262.544,178.837,265.528,180.205,267.614,182.39z M271.823,178.301l-2.104,2.044c-2.626-2.704-6.354-4.393-10.489-4.393
		c-4.108,0-7.815,1.667-10.438,4.341l-2.107-2.041c3.163-3.196,7.614-5.186,12.545-5.186
		C264.186,173.066,268.658,175.076,271.823,178.301z M234.116,173.061c0-0.531,0.446-0.961,0.978-0.961h2.878
		c0.54,0,0.978,0.418,0.978,0.961v16.447c0,0.531-0.446,0.962-0.978,0.962h-2.878c-0.54,0-0.978-0.418-0.978-0.962V173.061z
		 M226.381,177.907c0-0.538,0.446-0.974,0.978-0.974h2.878c0.54,0,0.978,0.45,0.978,0.974v11.589c0,0.538-0.446,0.974-0.978,0.974
		h-2.878c-0.54,0-0.978-0.451-0.978-0.974V177.907z M218.646,181.764c0-0.532,0.446-0.962,0.978-0.962h2.878
		c0.54,0,0.978,0.416,0.978,0.962v7.744c0,0.531-0.446,0.962-0.978,0.962h-2.878c-0.54,0-0.978-0.416-0.978-0.962V181.764z
		 M210.912,185.626c0-0.529,0.446-0.958,0.978-0.958h2.878c0.54,0,0.979,0.417,0.979,0.958v3.885c0,0.529-0.446,0.958-0.979,0.958
		h-2.878c-0.54,0-0.978-0.417-0.978-0.958V185.626z"/>
</g>
</svg>
